{
  "source": "C:\\Users\\Peter\\Desktop\\stuff\\MIUN\\quantitative_research\\video_compression\\videos\\UVG\\YachtRide_1920x1080_120fps_420_8bit_YUV.y4m",
  "output": "C:\\Users\\Peter\\Desktop\\stuff\\MIUN\\quantitative_research\\video_compression\\compressed_videos\\UVG\\hevc\\1\\YachtRide_1920x1080_120fps_420_8bit_YUV_hevc.mp4",
  "codec": "hevc",
  "ok": "[yuv4mpegpipe @ 00000245fcde66c0] Stream #0: not enough frames to estimate rate; consider increasing probesize\nInput #0, yuv4mpegpipe, from 'C:\\Users\\Peter\\Desktop\\stuff\\MIUN\\quantitative_research\\video_compression\\videos\\UVG\\YachtRide_1920x1080_120fps_420_8bit_YUV.y4m':\n  Duration: 00:00:05.00, start: 0.000000, bitrate: 2985989 kb/s\n  Stream #0:0: Video: rawvideo (I420 / 0x30323449), yuv420p(progressive), 1920x1080, 120 fps, 120 tbr, 120 tbn\n[out#0/mp4 @ 00000245fcdeb640] Codec AVOption b:a (set bitrate (in bits/s)) has not been used for any stream. The most likely reason is either wrong type (e.g. a video option with no video streams) or that it is a private option of some decoder which was not actually used for any stream.\nStream mapping:\n  Stream #0:0 -> #0:0 (rawvideo (native) -> hevc (libx265))\nPress [q] to stop, [?] for help\n[libx265 @ 00000245fcdecac0] Unknown option: \"aq-mode.\nx265 [info]: HEVC encoder version 4.1+190-8f11c33ac\nx265 [info]: build info [Windows][GCC 15.1.0][64 bit] 10bit\nx265 [info]: using cpu capabilities: MMX2 SSE2Fast LZCNT SSSE3 SSE4.2 AVX FMA3 BMI2 AVX2\nx265 [info]: Main 10 profile, Level-5 (Main tier)\nx265 [info]: Thread pool created using 12 threads\nx265 [info]: Slices                              : 1\nx265 [info]: frame threads / pool features       : 3 / wpp(17 rows)\nx265 [info]: Coding QT: max CU size, min CU size : 64 / 8\nx265 [info]: Residual QT: max TU size, max depth : 32 / 1 inter / 1 intra\nx265 [info]: ME / range / subpel / merge         : star / 57 / 3 / 3\nx265 [info]: Keyframe min / max / scenecut / bias  : 25 / 250 / 40 / 5.00 \nx265 [info]: Lookahead / bframes / badapt        : 25 / 4 / 2\nx265 [info]: b-pyramid / weightp / weightb       : 1 / 1 / 0\nx265 [info]: References / ref-limit  cu / depth  : 4 / on / on\nx265 [info]: AQ: mode / str / qg-size / cu-tree  : 2 / 1.0 / 32 / 1\nx265 [info]: Rate Control / qCompress            : ABR-1000 kbps / 0.60\nx265 [info]: VBV/HRD buffer / max-rate / init    : 1000 / 1000 / 0.750\nx265 [info]: tools: rect limit-modes rd=4 psy-rd=2.00 rdoq=2 psy-rdoq=1.00\nx265 [info]: tools: rskip mode=1 signhide tmvp strong-intra-smoothing lslices=4\nx265 [info]: tools: deblock sao dhdr10-info\nOutput #0, mp4, to 'C:\\Users\\Peter\\Desktop\\stuff\\MIUN\\quantitative_research\\video_compression\\compressed_videos\\UVG\\hevc\\1\\YachtRide_1920x1080_120fps_420_8bit_YUV_hevc.mp4':\n  Metadata:\n    encoder         : Lavf62.3.100\n  Stream #0:0: Video: hevc (hev1 / 0x31766568), yuv420p10le(tv, progressive), 1920x1080, q=2-31, 1000 kb/s, 120 fps, 15360 tbn\n    Metadata:\n      encoder         : Lavc62.11.100 libx265\n    Side data:\n      cpb: bitrate max/min/avg: 1000000/0/1000000 buffer size: 1000000 vbv_delay: N/A\nframe=    0 fps=0.0 q=0.0 size=       0KiB time=N/A bitrate=N/A speed=N/A elapsed=0:00:00.50    \nframe=    0 fps=0.0 q=0.0 size=       0KiB time=N/A bitrate=N/A speed=N/A elapsed=0:00:01.03    \nframe=    0 fps=0.0 q=0.0 size=       0KiB time=N/A bitrate=N/A speed=N/A elapsed=0:00:01.54    \nframe=    0 fps=0.0 q=0.0 size=       0KiB time=N/A bitrate=N/A speed=N/A elapsed=0:00:02.05    \nframe=    0 fps=0.0 q=0.0 size=       0KiB time=N/A bitrate=N/A speed=N/A elapsed=0:00:02.56    \nframe=    0 fps=0.0 q=0.0 size=       0KiB time=N/A bitrate=N/A speed=N/A elapsed=0:00:03.08    \nframe=    0 fps=0.0 q=0.0 size=       0KiB time=N/A bitrate=N/A speed=N/A elapsed=0:00:03.60    \nframe=    0 fps=0.0 q=0.0 size=       0KiB time=N/A bitrate=N/A speed=N/A elapsed=0:00:04.12    \nframe=    0 fps=0.0 q=0.0 size=       0KiB time=N/A bitrate=N/A speed=N/A elapsed=0:00:04.63    \nframe=    0 fps=0.0 q=0.0 size=       0KiB time=N/A bitrate=N/A speed=N/A elapsed=0:00:05.15    \nframe=    0 fps=0.0 q=0.0 size=       0KiB time=N/A bitrate=N/A speed=N/A elapsed=0:00:05.66    \nframe=    0 fps=0.0 q=0.0 size=       0KiB time=N/A bitrate=N/A speed=N/A elapsed=0:00:06.18    \nframe=    1 fps=0.1 q=51.0 size=       0KiB time=-00:00:00.00 bitrate=N/A speed=N/A elapsed=0:00:06.70    \nframe=    1 fps=0.1 q=51.0 size=       0KiB time=-00:00:00.00 bitrate=N/A speed=N/A elapsed=0:00:07.21    \nframe=    2 fps=0.3 q=51.0 size=       0KiB time=00:00:00.00 bitrate=N/A speed=   0x elapsed=0:00:07.73    \nframe=    2 fps=0.2 q=51.0 size=       0KiB time=00:00:00.00 bitrate=N/A speed=   0x elapsed=0:00:08.25    \nframe=    4 fps=0.5 q=51.0 size=       0KiB time=00:00:00.01 bitrate=  21.1kbits/s speed=0.0019x elapsed=0:00:08.76    \nframe=    4 fps=0.4 q=51.0 size=       0KiB time=00:00:00.01 bitrate=  21.1kbits/s speed=0.0018x elapsed=0:00:09.28    \nframe=    5 fps=0.5 q=51.0 size=       0KiB time=00:00:00.02 bitrate=  14.1kbits/s speed=0.00255x elapsed=0:00:09.81    \nframe=    5 fps=0.5 q=51.0 size=       0KiB time=00:00:00.02 bitrate=  14.1kbits/s speed=0.00242x elapsed=0:00:10.32    \nframe=    5 fps=0.5 q=51.0 size=       0KiB time=00:00:00.02 bitrate=  14.1kbits/s speed=0.00231x elapsed=0:00:10.84    \nframe=    6 fps=0.5 q=51.0 size=       0KiB time=00:00:00.03 bitrate=  10.6kbits/s speed=0.00294x elapsed=0:00:11.35    \nframe=    7 fps=0.6 q=51.0 size=       0KiB time=00:00:00.04 bitrate=   8.4kbits/s speed=0.00351x elapsed=0:00:11.87    \nframe=    8 fps=0.6 q=51.0 size=       0KiB time=00:00:00.05 bitrate=   7.0kbits/s speed=0.00404x elapsed=0:00:12.38    \nframe=    8 fps=0.6 q=51.0 size=       0KiB time=00:00:00.05 bitrate=   7.0kbits/s speed=0.00387x elapsed=0:00:12.90    \nframe=    9 fps=0.7 q=51.0 size=       0KiB time=00:00:00.05 bitrate=   6.0kbits/s speed=0.00435x elapsed=0:00:13.41    \nframe=    9 fps=0.6 q=51.0 size=       0KiB time=00:00:00.05 bitrate=   6.0kbits/s speed=0.00419x elapsed=0:00:13.93    \nframe=   10 fps=0.7 q=51.0 size=       0KiB time=00:00:00.06 bitrate=   5.3kbits/s speed=0.00461x elapsed=0:00:14.44    \nframe=   11 fps=0.7 q=51.0 size=       0KiB time=00:00:00.07 bitrate=   4.7kbits/s speed=0.00501x elapsed=0:00:14.96    \nframe=   11 fps=0.7 q=51.0 size=       0KiB time=00:00:00.07 bitrate=   4.7kbits/s speed=0.00484x elapsed=0:00:15.48    \nframe=   12 fps=0.8 q=51.0 size=       0KiB time=00:00:00.08 bitrate=   4.2kbits/s speed=0.00521x elapsed=0:00:15.99    \nframe=   12 fps=0.7 q=51.0 size=       0KiB time=00:00:00.08 bitrate=   4.2kbits/s speed=0.00505x elapsed=0:00:16.51    \nframe=   13 fps=0.8 q=51.0 size=       0KiB time=00:00:00.09 bitrate=   3.8kbits/s speed=0.00538x elapsed=0:00:17.02    \nframe=   13 fps=0.7 q=51.0 size=       0KiB time=00:00:00.09 bitrate=   3.8kbits/s speed=0.00523x elapsed=0:00:17.54    \nframe=   14 fps=0.8 q=51.0 size=       0KiB time=00:00:00.10 bitrate=   3.5kbits/s speed=0.00554x elapsed=0:00:18.05    \nframe=   15 fps=0.8 q=51.0 size=       0KiB time=00:00:00.10 bitrate=   3.2kbits/s speed=0.00583x elapsed=0:00:18.57    \nframe=   15 fps=0.8 q=51.0 size=       0KiB time=00:00:00.10 bitrate=   3.2kbits/s speed=0.00568x elapsed=0:00:19.08    \nframe=   16 fps=0.8 q=51.0 size=       0KiB time=00:00:00.11 bitrate=   3.0kbits/s speed=0.00595x elapsed=0:00:19.61    \nframe=   16 fps=0.8 q=51.0 size=       0KiB time=00:00:00.11 bitrate=   3.0kbits/s speed=0.0058x elapsed=0:00:20.12    \nframe=   17 fps=0.8 q=51.0 size=       0KiB time=00:00:00.12 bitrate=   2.8kbits/s speed=0.00606x elapsed=0:00:20.63    \nframe=   17 fps=0.8 q=51.0 size=       0KiB time=00:00:00.12 bitrate=   2.8kbits/s speed=0.00591x elapsed=0:00:21.14    \nframe=   18 fps=0.8 q=51.0 size=       0KiB time=00:00:00.13 bitrate=   2.6kbits/s speed=0.00615x elapsed=0:00:21.66    \nframe=   19 fps=0.9 q=51.0 size=       0KiB time=00:00:00.14 bitrate=   2.5kbits/s speed=0.00639x elapsed=0:00:22.18    \nframe=   19 fps=0.8 q=51.0 size=       0KiB time=00:00:00.14 bitrate=   2.5kbits/s speed=0.00624x elapsed=0:00:22.70    \nframe=   20 fps=0.9 q=51.0 size=       0KiB time=00:00:00.15 bitrate=   2.3kbits/s speed=0.00646x elapsed=0:00:23.21    \nframe=   20 fps=0.8 q=51.0 size=       0KiB time=00:00:00.15 bitrate=   2.3kbits/s speed=0.00632x elapsed=0:00:23.73    \nframe=   21 fps=0.9 q=51.0 size=       0KiB time=00:00:00.15 bitrate=   2.2kbits/s speed=0.00653x elapsed=0:00:24.24    \nframe=   21 fps=0.8 q=51.0 size=       0KiB time=00:00:00.15 bitrate=   2.2kbits/s speed=0.0064x elapsed=0:00:24.75    \nframe=   22 fps=0.9 q=51.0 size=       0KiB time=00:00:00.16 bitrate=   2.1kbits/s speed=0.00659x elapsed=0:00:25.28    \nframe=   22 fps=0.9 q=51.0 size=       0KiB time=00:00:00.16 bitrate=   2.1kbits/s speed=0.00646x elapsed=0:00:25.79    \nframe=   23 fps=0.9 q=51.0 size=       0KiB time=00:00:00.17 bitrate=   2.0kbits/s speed=0.00665x elapsed=0:00:26.30    \nframe=   24 fps=0.9 q=51.0 size=       0KiB time=00:00:00.18 bitrate=   1.9kbits/s speed=0.00683x elapsed=0:00:26.83    \nframe=   24 fps=0.9 q=51.0 size=       0KiB time=00:00:00.18 bitrate=   1.9kbits/s speed=0.00671x elapsed=0:00:27.34    \nframe=   25 fps=0.9 q=51.0 size=       0KiB time=00:00:00.19 bitrate=   1.8kbits/s speed=0.00688x elapsed=0:00:27.85    \nframe=   25 fps=0.9 q=51.0 size=       0KiB time=00:00:00.19 bitrate=   1.8kbits/s speed=0.00676x elapsed=0:00:28.37    \nframe=   26 fps=0.9 q=51.0 size=       0KiB time=00:00:00.20 bitrate=   1.8kbits/s speed=0.00692x elapsed=0:00:28.88    \nframe=   26 fps=0.9 q=51.0 size=       0KiB time=00:00:00.20 bitrate=   1.8kbits/s speed=0.0068x elapsed=0:00:29.39    \nframe=   27 fps=0.9 q=50.9 size=       0KiB time=00:00:00.20 bitrate=   1.7kbits/s speed=0.00696x elapsed=0:00:29.91    \nframe=   27 fps=0.9 q=50.9 size=       0KiB time=00:00:00.20 bitrate=   1.7kbits/s speed=0.00684x elapsed=0:00:30.43    \nframe=   28 fps=0.9 q=51.0 size=       0KiB time=00:00:00.21 bitrate=   1.6kbits/s speed=0.007x elapsed=0:00:30.95    \nframe=   28 fps=0.9 q=51.0 size=       0KiB time=00:00:00.21 bitrate=   1.6kbits/s speed=0.00688x elapsed=0:00:31.47    \nframe=   28 fps=0.9 q=51.0 size=       0KiB time=00:00:00.21 bitrate=   1.6kbits/s speed=0.00678x elapsed=0:00:31.97    \nframe=   29 fps=0.9 q=51.0 size=       0KiB time=00:00:00.22 bitrate=   1.6kbits/s speed=0.00692x elapsed=0:00:32.49    \nframe=   29 fps=0.9 q=51.0 size=       0KiB time=00:00:00.22 bitrate=   1.6kbits/s speed=0.00682x elapsed=0:00:33.01    \nframe=   29 fps=0.9 q=51.0 size=       0KiB time=00:00:00.22 bitrate=   1.6kbits/s speed=0.00671x elapsed=0:00:33.52    \nframe=   30 fps=0.9 q=51.0 size=       0KiB time=00:00:00.23 bitrate=   1.5kbits/s speed=0.00685x elapsed=0:00:34.04    \nframe=   30 fps=0.9 q=51.0 size=       0KiB time=00:00:00.23 bitrate=   1.5kbits/s speed=0.00675x elapsed=0:00:34.55    \nframe=   30 fps=0.9 q=51.0 size=       0KiB time=00:00:00.23 bitrate=   1.5kbits/s speed=0.00665x elapsed=0:00:35.08    \nframe=   31 fps=0.9 q=50.3 size=       0KiB time=00:00:00.24 bitrate=   1.5kbits/s speed=0.00679x elapsed=0:00:35.59    \nframe=   31 fps=0.9 q=50.3 size=       0KiB time=00:00:00.24 bitrate=   1.5kbits/s speed=0.00669x elapsed=0:00:36.11    \nframe=   32 fps=0.9 q=51.0 size=       0KiB time=00:00:00.25 bitrate=   1.4kbits/s speed=0.00683x elapsed=0:00:36.62    \nframe=   32 fps=0.9 q=51.0 size=       0KiB time=00:00:00.25 bitrate=   1.4kbits/s speed=0.00673x elapsed=0:00:37.15    \nframe=   33 fps=0.9 q=51.0 size=       0KiB time=00:00:00.25 bitrate=   1.4kbits/s speed=0.00685x elapsed=0:00:37.69    \nframe=   34 fps=0.9 q=51.0 size=       0KiB time=00:00:00.26 bitrate=   1.3kbits/s speed=0.00697x elapsed=0:00:38.25    \nframe=   35 fps=0.9 q=51.0 size=       0KiB time=00:00:00.27 bitrate=   1.3kbits/s speed=0.00709x elapsed=0:00:38.80    \nframe=   36 fps=0.9 q=50.9 size=       0KiB time=00:00:00.28 bitrate=   1.2kbits/s speed=0.0072x elapsed=0:00:39.35    \nframe=   36 fps=0.9 q=50.9 size=       0KiB time=00:00:00.28 bitrate=   1.2kbits/s speed=0.00711x elapsed=0:00:39.87    \nframe=   36 fps=0.9 q=50.9 size=       0KiB time=00:00:00.28 bitrate=   1.2kbits/s speed=0.00702x elapsed=0:00:40.38    \nframe=   37 fps=0.9 q=51.0 size=       0KiB time=00:00:00.29 bitrate=   1.2kbits/s speed=0.00713x elapsed=0:00:40.91    \nframe=   37 fps=0.9 q=51.0 size=       0KiB time=00:00:00.29 bitrate=   1.2kbits/s speed=0.00704x elapsed=0:00:41.43    \nframe=   37 fps=0.9 q=51.0 size=       0KiB time=00:00:00.29 bitrate=   1.2kbits/s speed=0.00695x elapsed=0:00:41.94    \nframe=   38 fps=0.9 q=51.0 size=       0KiB time=00:00:00.30 bitrate=   1.2kbits/s speed=0.00707x elapsed=0:00:42.46    \nframe=   38 fps=0.9 q=51.0 size=       0KiB time=00:00:00.30 bitrate=   1.2kbits/s speed=0.00698x elapsed=0:00:42.97    \nframe=   39 fps=0.9 q=51.0 size=       0KiB time=00:00:00.30 bitrate=   1.1kbits/s speed=0.00709x elapsed=0:00:43.49    \nframe=   40 fps=0.9 q=50.9 size=       0KiB time=00:00:00.31 bitrate=   1.1kbits/s speed=0.0072x elapsed=0:00:44.00    \nframe=   40 fps=0.9 q=50.9 size=       0KiB time=00:00:00.31 bitrate=   1.1kbits/s speed=0.00711x elapsed=0:00:44.53    \nframe=   40 fps=0.9 q=50.9 size=       0KiB time=00:00:00.31 bitrate=   1.1kbits/s speed=0.00703x elapsed=0:00:45.06    \nframe=   41 fps=0.9 q=51.0 size=       0KiB time=00:00:00.32 bitrate=   1.1kbits/s speed=0.00713x elapsed=0:00:45.57    \nframe=   41 fps=0.9 q=51.0 size=       0KiB time=00:00:00.32 bitrate=   1.1kbits/s speed=0.00705x elapsed=0:00:46.08    \nframe=   42 fps=0.9 q=50.9 size=       0KiB time=00:00:00.33 bitrate=   1.1kbits/s speed=0.00715x elapsed=0:00:46.61    \nframe=   42 fps=0.9 q=50.9 size=       0KiB time=00:00:00.33 bitrate=   1.1kbits/s speed=0.00707x elapsed=0:00:47.12    \nframe=   43 fps=0.9 q=50.9 size=       0KiB time=00:00:00.34 bitrate=   1.0kbits/s speed=0.00717x elapsed=0:00:47.63    \nframe=   43 fps=0.9 q=50.9 size=       0KiB time=00:00:00.34 bitrate=   1.0kbits/s speed=0.0071x elapsed=0:00:48.15    \nframe=   44 fps=0.9 q=50.7 size=       0KiB time=00:00:00.35 bitrate=   1.0kbits/s speed=0.00719x elapsed=0:00:48.66    \nframe=   44 fps=0.9 q=50.7 size=       0KiB time=00:00:00.35 bitrate=   1.0kbits/s speed=0.00712x elapsed=0:00:49.18    \nframe=   45 fps=0.9 q=50.9 size=       0KiB time=00:00:00.35 bitrate=   1.0kbits/s speed=0.00721x elapsed=0:00:49.70    \nframe=   45 fps=0.9 q=50.9 size=       0KiB time=00:00:00.35 bitrate=   1.0kbits/s speed=0.00714x elapsed=0:00:50.21    \nframe=   46 fps=0.9 q=50.6 size=       0KiB time=00:00:00.36 bitrate=   1.0kbits/s speed=0.00723x elapsed=0:00:50.73    \nframe=   46 fps=0.9 q=50.6 size=       0KiB time=00:00:00.36 bitrate=   1.0kbits/s speed=0.00715x elapsed=0:00:51.25    \nframe=   46 fps=0.9 q=50.6 size=       0KiB time=00:00:00.36 bitrate=   1.0kbits/s speed=0.00708x elapsed=0:00:51.76    \nframe=   46 fps=0.9 q=50.6 size=       0KiB time=00:00:00.36 bitrate=   1.0kbits/s speed=0.00701x elapsed=0:00:52.27    \nframe=   47 fps=0.9 q=50.9 size=       0KiB time=00:00:00.37 bitrate=   0.9kbits/s speed=0.0071x elapsed=0:00:52.79    \nframe=   47 fps=0.9 q=50.9 size=       0KiB time=00:00:00.37 bitrate=   0.9kbits/s speed=0.00704x elapsed=0:00:53.30    \nframe=   48 fps=0.9 q=50.3 size=       0KiB time=00:00:00.38 bitrate=   0.9kbits/s speed=0.00712x elapsed=0:00:53.83    \nframe=   48 fps=0.9 q=50.3 size=       0KiB time=00:00:00.38 bitrate=   0.9kbits/s speed=0.00705x elapsed=0:00:54.34    \nframe=   49 fps=0.9 q=49.8 size=       0KiB time=00:00:00.39 bitrate=   0.9kbits/s speed=0.00714x elapsed=0:00:54.85    \nframe=   49 fps=0.9 q=49.8 size=       0KiB time=00:00:00.39 bitrate=   0.9kbits/s speed=0.00707x elapsed=0:00:55.37    \nframe=   50 fps=0.9 q=49.7 size=       0KiB time=00:00:00.40 bitrate=   0.9kbits/s speed=0.00716x elapsed=0:00:55.88    \nframe=   50 fps=0.9 q=49.7 size=       0KiB time=00:00:00.40 bitrate=   0.9kbits/s speed=0.00709x elapsed=0:00:56.41    \nframe=   51 fps=0.9 q=51.0 size=       0KiB time=00:00:00.40 bitrate=   0.9kbits/s speed=0.00717x elapsed=0:00:56.91    \nframe=   52 fps=0.9 q=50.2 size=       0KiB time=00:00:00.41 bitrate=   0.8kbits/s speed=0.00725x elapsed=0:00:57.43    \nframe=   52 fps=0.9 q=50.2 size=       0KiB time=00:00:00.41 bitrate=   0.8kbits/s speed=0.00719x elapsed=0:00:57.94    \nframe=   52 fps=0.9 q=50.2 size=       0KiB time=00:00:00.41 bitrate=   0.8kbits/s speed=0.00713x elapsed=0:00:58.46    \nframe=   53 fps=0.9 q=49.3 size=       0KiB time=00:00:00.42 bitrate=   0.8kbits/s speed=0.00721x elapsed=0:00:58.98    \nframe=   53 fps=0.9 q=49.3 size=       0KiB time=00:00:00.42 bitrate=   0.8kbits/s speed=0.00714x elapsed=0:00:59.49    \nframe=   54 fps=0.9 q=48.9 size=       0KiB time=00:00:00.43 bitrate=   0.8kbits/s speed=0.00722x elapsed=0:01:00.01    \nframe=   55 fps=0.9 q=50.9 size=       0KiB time=00:00:00.44 bitrate=   0.8kbits/s speed=0.0073x elapsed=0:01:00.53    \nframe=   55 fps=0.9 q=50.9 size=       0KiB time=00:00:00.44 bitrate=   0.8kbits/s speed=0.00724x elapsed=0:01:01.04    \nframe=   56 fps=0.9 q=50.0 size=       0KiB time=00:00:00.45 bitrate=   0.8kbits/s speed=0.00731x elapsed=0:01:01.56    \nframe=   56 fps=0.9 q=50.0 size=       0KiB time=00:00:00.45 bitrate=   0.8kbits/s speed=0.00725x elapsed=0:01:02.07    \nframe=   57 fps=0.9 q=48.5 size=       0KiB time=00:00:00.45 bitrate=   0.8kbits/s speed=0.00732x elapsed=0:01:02.59    \nframe=   57 fps=0.9 q=48.5 size=       0KiB time=00:00:00.45 bitrate=   0.8kbits/s speed=0.00726x elapsed=0:01:03.11    \nframe=   58 fps=0.9 q=47.8 size=       0KiB time=00:00:00.46 bitrate=   0.8kbits/s speed=0.00733x elapsed=0:01:03.63    \nframe=   58 fps=0.9 q=47.8 size=       0KiB time=00:00:00.46 bitrate=   0.8kbits/s speed=0.00728x elapsed=0:01:04.13    \nframe=   58 fps=0.9 q=47.8 size=       0KiB time=00:00:00.46 bitrate=   0.8kbits/s speed=0.00722x elapsed=0:01:04.65    \nframe=   58 fps=0.9 q=47.8 size=       0KiB time=00:00:00.46 bitrate=   0.8kbits/s speed=0.00716x elapsed=0:01:05.16    \nframe=   59 fps=0.9 q=50.8 size=       0KiB time=00:00:00.47 bitrate=   0.7kbits/s speed=0.00723x elapsed=0:01:05.68    \nframe=   59 fps=0.9 q=50.8 size=       0KiB time=00:00:00.47 bitrate=   0.7kbits/s speed=0.00717x elapsed=0:01:06.20    \nframe=   60 fps=0.9 q=49.6 size=       0KiB time=00:00:00.47 bitrate=   0.7kbits/s speed=0.00712x elapsed=0:01:06.71    \nframe=   60 fps=0.9 q=49.6 size=       0KiB time=00:00:00.48 bitrate=   0.7kbits/s speed=0.00719x elapsed=0:01:07.23    \nframe=   61 fps=0.9 q=48.4 size=       0KiB time=00:00:00.49 bitrate=   0.7kbits/s speed=0.00726x elapsed=0:01:07.74    \nframe=   61 fps=0.9 q=48.4 size=       0KiB time=00:00:00.49 bitrate=   0.7kbits/s speed=0.0072x elapsed=0:01:08.25    \nframe=   62 fps=0.9 q=48.2 size=       0KiB time=00:00:00.50 bitrate=   0.7kbits/s speed=0.00727x elapsed=0:01:08.78    \nframe=   62 fps=0.9 q=48.2 size=       0KiB time=00:00:00.50 bitrate=   0.7kbits/s speed=0.00721x elapsed=0:01:09.30    \nframe=   62 fps=0.9 q=48.2 size=       0KiB time=00:00:00.50 bitrate=   0.7kbits/s speed=0.00716x elapsed=0:01:09.80    \nframe=   62 fps=0.9 q=48.2 size=       0KiB time=00:00:00.50 bitrate=   0.7kbits/s speed=0.00711x elapsed=0:01:10.32    \nframe=   63 fps=0.9 q=50.8 size=       0KiB time=00:00:00.50 bitrate=   0.7kbits/s speed=0.00718x elapsed=0:01:10.84    \nframe=   63 fps=0.9 q=50.8 size=       0KiB time=00:00:00.50 bitrate=   0.7kbits/s speed=0.00712x elapsed=0:01:11.35    \nframe=   64 fps=0.9 q=49.7 size=       0KiB time=00:00:00.51 bitrate=   0.7kbits/s speed=0.00719x elapsed=0:01:11.87    \nframe=   64 fps=0.9 q=49.7 size=       0KiB time=00:00:00.51 bitrate=   0.7kbits/s speed=0.00714x elapsed=0:01:12.38    \nframe=   64 fps=0.9 q=49.7 size=       0KiB time=00:00:00.51 bitrate=   0.7kbits/s speed=0.00709x elapsed=0:01:12.90    \nframe=   65 fps=0.9 q=48.3 size=       0KiB time=00:00:00.52 bitrate=   0.7kbits/s speed=0.00715x elapsed=0:01:13.41    \nframe=   65 fps=0.9 q=48.3 size=       0KiB time=00:00:00.52 bitrate=   0.7kbits/s speed=0.0071x elapsed=0:01:13.93    \nframe=   66 fps=0.9 q=48.8 size=       0KiB time=00:00:00.53 bitrate=   0.7kbits/s speed=0.00716x elapsed=0:01:14.45    \nframe=   66 fps=0.9 q=48.8 size=       0KiB time=00:00:00.53 bitrate=   0.7kbits/s speed=0.00711x elapsed=0:01:14.96    \nframe=   67 fps=0.9 q=50.9 size=       0KiB time=00:00:00.54 bitrate=   0.6kbits/s speed=0.00718x elapsed=0:01:15.47    \nframe=   67 fps=0.9 q=50.9 size=       0KiB time=00:00:00.54 bitrate=   0.6kbits/s speed=0.00713x elapsed=0:01:16.00    \nframe=   68 fps=0.9 q=48.5 size=       0KiB time=00:00:00.55 bitrate=   0.6kbits/s speed=0.00719x elapsed=0:01:16.51    \nframe=   69 fps=0.9 q=48.4 size=       0KiB time=00:00:00.55 bitrate=   0.6kbits/s speed=0.00725x elapsed=0:01:17.03    \nframe=   69 fps=0.9 q=48.4 size=       0KiB time=00:00:00.55 bitrate=   0.6kbits/s speed=0.0072x elapsed=0:01:17.55    \nframe=   69 fps=0.9 q=48.4 size=       0KiB time=00:00:00.55 bitrate=   0.6kbits/s speed=0.00715x elapsed=0:01:18.05    \nframe=   69 fps=0.9 q=48.4 size=       0KiB time=00:00:00.55 bitrate=   0.6kbits/s speed=0.00711x elapsed=0:01:18.57    \nframe=   70 fps=0.9 q=48.8 size=       0KiB time=00:00:00.56 bitrate=   0.6kbits/s speed=0.00716x elapsed=0:01:19.08    \nframe=   70 fps=0.9 q=48.8 size=       0KiB time=00:00:00.56 bitrate=   0.6kbits/s speed=0.00712x elapsed=0:01:19.60    \nframe=   70 fps=0.9 q=48.8 size=       0KiB time=00:00:00.56 bitrate=   0.6kbits/s speed=0.00707x elapsed=0:01:20.12    \nframe=   71 fps=0.9 q=50.7 size=       0KiB time=00:00:00.57 bitrate=   0.6kbits/s speed=0.00713x elapsed=0:01:20.63    \nframe=   71 fps=0.9 q=50.7 size=       0KiB time=00:00:00.57 bitrate=   0.6kbits/s speed=0.00709x elapsed=0:01:21.15    \nframe=   72 fps=0.9 q=47.8 size=       0KiB time=00:00:00.58 bitrate=   0.6kbits/s speed=0.00714x elapsed=0:01:21.66    \nframe=   73 fps=0.9 q=49.1 size=       0KiB time=00:00:00.59 bitrate=   0.6kbits/s speed=0.0072x elapsed=0:01:22.18    \nframe=   73 fps=0.9 q=49.1 size=       0KiB time=00:00:00.59 bitrate=   0.6kbits/s speed=0.00715x elapsed=0:01:22.70    \nframe=   73 fps=0.9 q=49.1 size=       0KiB time=00:00:00.59 bitrate=   0.6kbits/s speed=0.00711x elapsed=0:01:23.21    \nframe=   74 fps=0.9 q=49.2 size=       0KiB time=00:00:00.60 bitrate=   0.6kbits/s speed=0.00717x elapsed=0:01:23.74    \nframe=   74 fps=0.9 q=49.2 size=       0KiB time=00:00:00.60 bitrate=   0.6kbits/s speed=0.00712x elapsed=0:01:24.26    \nframe=   75 fps=0.9 q=50.7 size=       0KiB time=00:00:00.60 bitrate=   0.6kbits/s speed=0.00718x elapsed=0:01:24.78    \nframe=   75 fps=0.9 q=50.7 size=       0KiB time=00:00:00.60 bitrate=   0.6kbits/s speed=0.00713x elapsed=0:01:25.30    \nframe=   76 fps=0.9 q=48.4 size=       0KiB time=00:00:00.61 bitrate=   0.6kbits/s speed=0.00719x elapsed=0:01:25.82    \nframe=   77 fps=0.9 q=49.3 size=       0KiB time=00:00:00.62 bitrate=   0.6kbits/s speed=0.00724x elapsed=0:01:26.34    \nframe=   77 fps=0.9 q=49.3 size=       0KiB time=00:00:00.62 bitrate=   0.6kbits/s speed=0.0072x elapsed=0:01:26.85    \nframe=   78 fps=0.9 q=49.3 size=       0KiB time=00:00:00.63 bitrate=   0.6kbits/s speed=0.00725x elapsed=0:01:27.36    \nframe=   78 fps=0.9 q=49.3 size=       0KiB time=00:00:00.63 bitrate=   0.6kbits/s speed=0.00721x elapsed=0:01:27.88    \nframe=   78 fps=0.9 q=49.3 size=       0KiB time=00:00:00.63 bitrate=   0.6kbits/s speed=0.00716x elapsed=0:01:28.39    \nframe=   78 fps=0.9 q=49.3 size=       0KiB time=00:00:00.63 bitrate=   0.6kbits/s speed=0.00712x elapsed=0:01:28.91    \nframe=   78 fps=0.9 q=49.3 size=       0KiB time=00:00:00.63 bitrate=   0.6kbits/s speed=0.00708x elapsed=0:01:29.43    \nframe=   79 fps=0.9 q=50.8 size=       0KiB time=00:00:00.64 bitrate=   0.5kbits/s speed=0.00713x elapsed=0:01:29.95    \nframe=   79 fps=0.9 q=50.8 size=       0KiB time=00:00:00.64 bitrate=   0.5kbits/s speed=0.00709x elapsed=0:01:30.46    \nframe=   79 fps=0.9 q=50.8 size=       0KiB time=00:00:00.64 bitrate=   0.5kbits/s speed=0.00705x elapsed=0:01:30.98    \nframe=   79 fps=0.9 q=50.8 size=       0KiB time=00:00:00.64 bitrate=   0.5kbits/s speed=0.00701x elapsed=0:01:31.50    \nframe=   80 fps=0.9 q=47.2 size=       0KiB time=00:00:00.65 bitrate=   0.5kbits/s speed=0.00706x elapsed=0:01:32.01    \nframe=   80 fps=0.9 q=47.2 size=       0KiB time=00:00:00.65 bitrate=   0.5kbits/s speed=0.00702x elapsed=0:01:32.52    \nframe=   81 fps=0.9 q=48.7 size=       0KiB time=00:00:00.65 bitrate=   0.5kbits/s speed=0.00708x elapsed=0:01:33.04    \nframe=   81 fps=0.9 q=48.7 size=       0KiB time=00:00:00.65 bitrate=   0.5kbits/s speed=0.00704x elapsed=0:01:33.56    \nframe=   81 fps=0.9 q=48.7 size=       0KiB time=00:00:00.65 bitrate=   0.5kbits/s speed=0.007x elapsed=0:01:34.08    \nframe=   81 fps=0.9 q=48.7 size=       0KiB time=00:00:00.65 bitrate=   0.5kbits/s speed=0.00696x elapsed=0:01:34.58    \nframe=   81 fps=0.9 q=48.7 size=       0KiB time=00:00:00.65 bitrate=   0.5kbits/s speed=0.00692x elapsed=0:01:35.10    \nframe=   82 fps=0.9 q=48.6 size=       0KiB time=00:00:00.66 bitrate=   0.5kbits/s speed=0.00697x elapsed=0:01:35.61    \nframe=   82 fps=0.9 q=48.6 size=       0KiB time=00:00:00.66 bitrate=   0.5kbits/s speed=0.00693x elapsed=0:01:36.13    \nframe=   82 fps=0.8 q=48.6 size=       0KiB time=00:00:00.66 bitrate=   0.5kbits/s speed=0.0069x elapsed=0:01:36.66    \nframe=   82 fps=0.8 q=48.6 size=       0KiB time=00:00:00.66 bitrate=   0.5kbits/s speed=0.00686x elapsed=0:01:37.17    \nframe=   83 fps=0.8 q=50.7 size=       0KiB time=00:00:00.67 bitrate=   0.5kbits/s speed=0.00691x elapsed=0:01:37.68    \nframe=   83 fps=0.8 q=50.7 size=       0KiB time=00:00:00.67 bitrate=   0.5kbits/s speed=0.00687x elapsed=0:01:38.20    \nframe=   84 fps=0.9 q=47.2 size=       0KiB time=00:00:00.68 bitrate=   0.5kbits/s speed=0.00692x elapsed=0:01:38.71    \nframe=   85 fps=0.9 q=48.6 size=       0KiB time=00:00:00.69 bitrate=   0.5kbits/s speed=0.00697x elapsed=0:01:39.23    \nframe=   85 fps=0.9 q=48.6 size=       0KiB time=00:00:00.69 bitrate=   0.5kbits/s speed=0.00693x elapsed=0:01:39.74    \nframe=   86 fps=0.9 q=48.7 size=       0KiB time=00:00:00.70 bitrate=   0.5kbits/s speed=0.00698x elapsed=0:01:40.27    \nframe=   86 fps=0.9 q=48.7 size=       0KiB time=00:00:00.70 bitrate=   0.5kbits/s speed=0.00695x elapsed=0:01:40.79    \nframe=   87 fps=0.9 q=50.6 size=       0KiB time=00:00:00.70 bitrate=   0.5kbits/s speed=0.00699x elapsed=0:01:41.30    \nframe=   87 fps=0.9 q=50.6 size=       0KiB time=00:00:00.70 bitrate=   0.5kbits/s speed=0.00696x elapsed=0:01:41.82    \nframe=   87 fps=0.9 q=50.6 size=       0KiB time=00:00:00.70 bitrate=   0.5kbits/s speed=0.00692x elapsed=0:01:42.33    \nframe=   88 fps=0.9 q=48.0 size=       0KiB time=00:00:00.71 bitrate=   0.5kbits/s speed=0.00697x elapsed=0:01:42.86    \nframe=   88 fps=0.9 q=48.0 size=       0KiB time=00:00:00.71 bitrate=   0.5kbits/s speed=0.00693x elapsed=0:01:43.38    \nframe=   88 fps=0.8 q=48.0 size=       0KiB time=00:00:00.71 bitrate=   0.5kbits/s speed=0.0069x elapsed=0:01:43.90    \nframe=   89 fps=0.9 q=48.7 size=       0KiB time=00:00:00.72 bitrate=   0.5kbits/s speed=0.00694x elapsed=0:01:44.41    \nframe=   89 fps=0.8 q=48.7 size=       0KiB time=00:00:00.72 bitrate=   0.5kbits/s speed=0.00691x elapsed=0:01:44.93    \nframe=   90 fps=0.9 q=48.6 size=       0KiB time=00:00:00.73 bitrate=   0.5kbits/s speed=0.00695x elapsed=0:01:45.45    \nframe=   90 fps=0.8 q=48.6 size=       0KiB time=00:00:00.73 bitrate=   0.5kbits/s speed=0.00692x elapsed=0:01:45.96    \nframe=   90 fps=0.8 q=48.6 size=       0KiB time=00:00:00.73 bitrate=   0.5kbits/s speed=0.00689x elapsed=0:01:46.48    \nframe=   91 fps=0.9 q=50.4 size=       0KiB time=00:00:00.74 bitrate=   0.5kbits/s speed=0.00693x elapsed=0:01:46.99    \nframe=   92 fps=0.9 q=48.5 size=       0KiB time=00:00:00.75 bitrate=   0.5kbits/s speed=0.00698x elapsed=0:01:47.51    \nframe=   92 fps=0.9 q=48.5 size=       0KiB time=00:00:00.75 bitrate=   0.5kbits/s speed=0.00694x elapsed=0:01:48.03    \nframe=   92 fps=0.8 q=48.5 size=       0KiB time=00:00:00.75 bitrate=   0.5kbits/s speed=0.00691x elapsed=0:01:48.54    \nframe=   93 fps=0.9 q=48.9 size=       0KiB time=00:00:00.75 bitrate=   0.5kbits/s speed=0.00695x elapsed=0:01:49.05    \nframe=   93 fps=0.8 q=48.9 size=       0KiB time=00:00:00.75 bitrate=   0.5kbits/s speed=0.00692x elapsed=0:01:49.56    \nframe=   93 fps=0.8 q=48.9 size=       0KiB time=00:00:00.75 bitrate=   0.5kbits/s speed=0.00689x elapsed=0:01:50.09    \nframe=   93 fps=0.8 q=48.9 size=       0KiB time=00:00:00.75 bitrate=   0.5kbits/s speed=0.00686x elapsed=0:01:50.61    \nframe=   94 fps=0.8 q=49.5 size=       0KiB time=00:00:00.76 bitrate=   0.5kbits/s speed=0.0069x elapsed=0:01:51.12    \nframe=   94 fps=0.8 q=49.5 size=       0KiB time=00:00:00.76 bitrate=   0.5kbits/s speed=0.00687x elapsed=0:01:51.63    \nframe=   94 fps=0.8 q=49.5 size=       0KiB time=00:00:00.76 bitrate=   0.5kbits/s speed=0.00684x elapsed=0:01:52.15    \nframe=   95 fps=0.8 q=46.9 size=       0KiB time=00:00:00.77 bitrate=   0.5kbits/s speed=0.00688x elapsed=0:01:52.67    \nframe=   96 fps=0.8 q=48.6 size=       0KiB time=00:00:00.78 bitrate=   0.4kbits/s speed=0.00692x elapsed=0:01:53.18    \nframe=   96 fps=0.8 q=48.6 size=       0KiB time=00:00:00.78 bitrate=   0.4kbits/s speed=0.00689x elapsed=0:01:53.70    \nframe=   96 fps=0.8 q=48.6 size=       0KiB time=00:00:00.78 bitrate=   0.4kbits/s speed=0.00686x elapsed=0:01:54.21    \nframe=   97 fps=0.8 q=50.0 size=       0KiB time=00:00:00.79 bitrate=   0.4kbits/s speed=0.0069x elapsed=0:01:54.73    \nframe=   97 fps=0.8 q=50.0 size=       0KiB time=00:00:00.79 bitrate=   0.4kbits/s speed=0.00687x elapsed=0:01:55.24    \nframe=   98 fps=0.8 q=50.9 size=       0KiB time=00:00:00.80 bitrate=   0.4kbits/s speed=0.00691x elapsed=0:01:55.76    \nframe=   98 fps=0.8 q=50.9 size=       0KiB time=00:00:00.80 bitrate=   0.4kbits/s speed=0.00688x elapsed=0:01:56.27    \nframe=   99 fps=0.8 q=47.4 size=       0KiB time=00:00:00.80 bitrate=   0.4kbits/s speed=0.00692x elapsed=0:01:56.79    \nframe=  100 fps=0.9 q=49.8 size=       0KiB time=00:00:00.81 bitrate=   0.4kbits/s speed=0.00696x elapsed=0:01:57.30    \nframe=  100 fps=0.8 q=49.8 size=       0KiB time=00:00:00.81 bitrate=   0.4kbits/s speed=0.00693x elapsed=0:01:57.83    \nframe=  100 fps=0.8 q=49.8 size=       0KiB time=00:00:00.81 bitrate=   0.4kbits/s speed=0.0069x elapsed=0:01:58.36    \nframe=  101 fps=0.8 q=50.7 size=       0KiB time=00:00:00.82 bitrate=   0.4kbits/s speed=0.00694x elapsed=0:01:58.86    \nframe=  102 fps=0.9 q=51.0 size=       0KiB time=00:00:00.83 bitrate=   0.4kbits/s speed=0.00698x elapsed=0:01:59.38    \nframe=  102 fps=0.9 q=51.0 size=       0KiB time=00:00:00.83 bitrate=   0.4kbits/s speed=0.00695x elapsed=0:01:59.90    \nframe=  103 fps=0.9 q=47.4 size=       0KiB time=00:00:00.84 bitrate=   0.4kbits/s speed=0.00699x elapsed=0:02:00.41    \nframe=  103 fps=0.9 q=47.4 size=       0KiB time=00:00:00.84 bitrate=   0.4kbits/s speed=0.00696x elapsed=0:02:00.93    \nframe=  104 fps=0.9 q=49.3 size=       0KiB time=00:00:00.85 bitrate=   0.4kbits/s speed=0.007x elapsed=0:02:01.45    \nframe=  104 fps=0.9 q=49.3 size=       0KiB time=00:00:00.85 bitrate=   0.4kbits/s speed=0.00697x elapsed=0:02:01.96    \nframe=  104 fps=0.8 q=49.3 size=       0KiB time=00:00:00.85 bitrate=   0.4kbits/s speed=0.00694x elapsed=0:02:02.48    \nframe=  104 fps=0.8 q=49.3 size=       0KiB time=00:00:00.85 bitrate=   0.4kbits/s speed=0.00691x elapsed=0:02:02.99    \nframe=  104 fps=0.8 q=49.3 size=       0KiB time=00:00:00.85 bitrate=   0.4kbits/s speed=0.00688x elapsed=0:02:03.51    \nframe=  105 fps=0.8 q=51.0 size=       0KiB time=00:00:00.85 bitrate=   0.4kbits/s speed=0.00692x elapsed=0:02:04.03    \nframe=  105 fps=0.8 q=51.0 size=       0KiB time=00:00:00.85 bitrate=   0.4kbits/s speed=0.00689x elapsed=0:02:04.53    \nframe=  106 fps=0.8 q=51.0 size=       0KiB time=00:00:00.86 bitrate=   0.4kbits/s speed=0.00693x elapsed=0:02:05.06    \nframe=  106 fps=0.8 q=51.0 size=       0KiB time=00:00:00.86 bitrate=   0.4kbits/s speed=0.0069x elapsed=0:02:05.56    \nframe=  107 fps=0.8 q=46.5 size=       0KiB time=00:00:00.87 bitrate=   0.4kbits/s speed=0.00694x elapsed=0:02:06.08    \nframe=  107 fps=0.8 q=46.5 size=       0KiB time=00:00:00.87 bitrate=   0.4kbits/s speed=0.00691x elapsed=0:02:06.60    \nframe=  108 fps=0.8 q=49.3 size=       0KiB time=00:00:00.88 bitrate=   0.4kbits/s speed=0.00695x elapsed=0:02:07.12    \nframe=  108 fps=0.8 q=49.3 size=       0KiB time=00:00:00.88 bitrate=   0.4kbits/s speed=0.00692x elapsed=0:02:07.63    \nframe=  108 fps=0.8 q=49.3 size=       0KiB time=00:00:00.88 bitrate=   0.4kbits/s speed=0.00689x elapsed=0:02:08.15    \nframe=  109 fps=0.8 q=50.9 size=       0KiB time=00:00:00.89 bitrate=   0.4kbits/s speed=0.00693x elapsed=0:02:08.66    \nframe=  109 fps=0.8 q=50.9 size=       0KiB time=00:00:00.89 bitrate=   0.4kbits/s speed=0.0069x elapsed=0:02:09.18    \nframe=  109 fps=0.8 q=50.9 size=       0KiB time=00:00:00.89 bitrate=   0.4kbits/s speed=0.00687x elapsed=0:02:09.70    \nframe=  110 fps=0.8 q=49.9 size=       0KiB time=00:00:00.90 bitrate=   0.4kbits/s speed=0.00691x elapsed=0:02:10.23    \nframe=  110 fps=0.8 q=49.9 size=       0KiB time=00:00:00.90 bitrate=   0.4kbits/s speed=0.00688x elapsed=0:02:10.74    \nframe=  110 fps=0.8 q=49.9 size=       0KiB time=00:00:00.90 bitrate=   0.4kbits/s speed=0.00686x elapsed=0:02:11.26    \nframe=  110 fps=0.8 q=49.9 size=       0KiB time=00:00:00.90 bitrate=   0.4kbits/s speed=0.00683x elapsed=0:02:11.77    \nframe=  111 fps=0.8 q=46.7 size=       0KiB time=00:00:00.90 bitrate=   0.4kbits/s speed=0.00687x elapsed=0:02:12.28    \nframe=  112 fps=0.8 q=49.2 size=       0KiB time=00:00:00.91 bitrate=   0.4kbits/s speed=0.0069x elapsed=0:02:12.81    \nframe=  112 fps=0.8 q=49.2 size=       0KiB time=00:00:00.91 bitrate=   0.4kbits/s speed=0.00688x elapsed=0:02:13.33    \nframe=  113 fps=0.8 q=49.9 size=       0KiB time=00:00:00.92 bitrate=   0.4kbits/s speed=0.00691x elapsed=0:02:13.83    \nframe=  113 fps=0.8 q=49.9 size=       0KiB time=00:00:00.92 bitrate=   0.4kbits/s speed=0.00689x elapsed=0:02:14.34    \nframe=  113 fps=0.8 q=49.9 size=       0KiB time=00:00:00.92 bitrate=   0.4kbits/s speed=0.00686x elapsed=0:02:14.87    \nframe=  114 fps=0.8 q=49.9 size=       0KiB time=00:00:00.93 bitrate=   0.4kbits/s speed=0.00689x elapsed=0:02:15.38    \nframe=  114 fps=0.8 q=49.9 size=       0KiB time=00:00:00.93 bitrate=   0.4kbits/s speed=0.00687x elapsed=0:02:15.91    \nframe=  115 fps=0.8 q=46.6 size=       0KiB time=00:00:00.94 bitrate=   0.4kbits/s speed=0.0069x elapsed=0:02:16.43    \nframe=  115 fps=0.8 q=46.6 size=       0KiB time=00:00:00.94 bitrate=   0.4kbits/s speed=0.00688x elapsed=0:02:16.95    \nframe=  116 fps=0.8 q=49.5 size=       0KiB time=00:00:00.95 bitrate=   0.4kbits/s speed=0.00691x elapsed=0:02:17.46    \nframe=  116 fps=0.8 q=49.5 size=       0KiB time=00:00:00.95 bitrate=   0.4kbits/s speed=0.00689x elapsed=0:02:17.97    \nframe=  117 fps=0.8 q=50.0 size=       0KiB time=00:00:00.95 bitrate=   0.4kbits/s speed=0.00692x elapsed=0:02:18.50    \nframe=  117 fps=0.8 q=50.0 size=       0KiB time=00:00:00.95 bitrate=   0.4kbits/s speed=0.00689x elapsed=0:02:19.03    \nframe=  118 fps=0.8 q=50.0 size=       0KiB time=00:00:00.96 bitrate=   0.4kbits/s speed=0.00693x elapsed=0:02:19.54    \nframe=  118 fps=0.8 q=50.0 size=       0KiB time=00:00:00.96 bitrate=   0.4kbits/s speed=0.0069x elapsed=0:02:20.05    \nframe=  119 fps=0.8 q=46.8 size=       0KiB time=00:00:00.97 bitrate=   0.4kbits/s speed=0.00694x elapsed=0:02:20.58    \nframe=  119 fps=0.8 q=46.8 size=       0KiB time=00:00:00.97 bitrate=   0.4kbits/s speed=0.00691x elapsed=0:02:21.09    \nframe=  120 fps=0.8 q=48.7 size=       0KiB time=00:00:00.98 bitrate=   0.4kbits/s speed=0.00694x elapsed=0:02:21.60    \nframe=  120 fps=0.8 q=48.7 size=       0KiB time=00:00:00.98 bitrate=   0.4kbits/s speed=0.00692x elapsed=0:02:22.12    \nframe=  121 fps=0.8 q=51.0 size=       0KiB time=00:00:00.99 bitrate=   0.4kbits/s speed=0.00695x elapsed=0:02:22.63    \nframe=  121 fps=0.8 q=51.0 size=       0KiB time=00:00:00.99 bitrate=   0.4kbits/s speed=0.00693x elapsed=0:02:23.14    \nframe=  121 fps=0.8 q=51.0 size=       0KiB time=00:00:00.99 bitrate=   0.4kbits/s speed=0.0069x elapsed=0:02:23.66    \nframe=  122 fps=0.8 q=50.0 size=       0KiB time=00:00:01.00 bitrate=   0.4kbits/s speed=0.00694x elapsed=0:02:24.18    \nframe=  122 fps=0.8 q=50.0 size=       0KiB time=00:00:01.00 bitrate=   0.4kbits/s speed=0.00691x elapsed=0:02:24.70    \nframe=  122 fps=0.8 q=50.0 size=       0KiB time=00:00:01.00 bitrate=   0.4kbits/s speed=0.00689x elapsed=0:02:25.21    \nframe=  123 fps=0.8 q=47.9 size=       0KiB time=00:00:01.00 bitrate=   0.3kbits/s speed=0.00692x elapsed=0:02:25.73    \nframe=  124 fps=0.8 q=49.1 size=       0KiB time=00:00:01.01 bitrate=   0.3kbits/s speed=0.00695x elapsed=0:02:26.24    \nframe=  124 fps=0.8 q=49.1 size=       0KiB time=00:00:01.01 bitrate=   0.3kbits/s speed=0.00693x elapsed=0:02:26.76    \nframe=  124 fps=0.8 q=49.1 size=       0KiB time=00:00:01.01 bitrate=   0.3kbits/s speed=0.0069x elapsed=0:02:27.28    \nframe=  124 fps=0.8 q=49.1 size=       0KiB time=00:00:01.01 bitrate=   0.3kbits/s speed=0.00688x elapsed=0:02:27.78    \nframe=  125 fps=0.8 q=50.8 size=       0KiB time=00:00:01.02 bitrate=   0.3kbits/s speed=0.00691x elapsed=0:02:28.31    \nframe=  125 fps=0.8 q=50.8 size=       0KiB time=00:00:01.02 bitrate=   0.3kbits/s speed=0.00689x elapsed=0:02:28.83    \nframe=  126 fps=0.8 q=49.8 size=       0KiB time=00:00:01.03 bitrate=   0.3kbits/s speed=0.00692x elapsed=0:02:29.33    \nframe=  126 fps=0.8 q=49.8 size=       0KiB time=00:00:01.03 bitrate=   0.3kbits/s speed=0.0069x elapsed=0:02:29.86    \nframe=  126 fps=0.8 q=49.8 size=       0KiB time=00:00:01.03 bitrate=   0.3kbits/s speed=0.00687x elapsed=0:02:30.36    \nframe=  127 fps=0.8 q=46.7 size=       0KiB time=00:00:01.04 bitrate=   0.3kbits/s speed=0.0069x elapsed=0:02:30.88    \nframe=  127 fps=0.8 q=46.7 size=       0KiB time=00:00:01.04 bitrate=   0.3kbits/s speed=0.00688x elapsed=0:02:31.40    \nframe=  127 fps=0.8 q=46.7 size=       0KiB time=00:00:01.04 bitrate=   0.3kbits/s speed=0.00686x elapsed=0:02:31.91    \nframe=  128 fps=0.8 q=49.1 size=       0KiB time=00:00:01.05 bitrate=   0.3kbits/s speed=0.00689x elapsed=0:02:32.43    \nframe=  128 fps=0.8 q=49.1 size=       0KiB time=00:00:01.05 bitrate=   0.3kbits/s speed=0.00686x elapsed=0:02:32.95    \nframe=  129 fps=0.8 q=51.0 size=       0KiB time=00:00:01.05 bitrate=   0.3kbits/s speed=0.0069x elapsed=0:02:33.46    \nframe=  129 fps=0.8 q=51.0 size=       0KiB time=00:00:01.05 bitrate=   0.3kbits/s speed=0.00687x elapsed=0:02:33.97    \nframe=  130 fps=0.8 q=50.8 size=       0KiB time=00:00:01.06 bitrate=   0.3kbits/s speed=0.0069x elapsed=0:02:34.50    \nframe=  130 fps=0.8 q=50.8 size=       0KiB time=00:00:01.06 bitrate=   0.3kbits/s speed=0.00688x elapsed=0:02:35.01    \nframe=  131 fps=0.8 q=47.4 size=       0KiB time=00:00:01.07 bitrate=   0.3kbits/s speed=0.00691x elapsed=0:02:35.52    \nframe=  131 fps=0.8 q=47.4 size=       0KiB time=00:00:01.07 bitrate=   0.3kbits/s speed=0.00689x elapsed=0:02:36.04    \nframe=  132 fps=0.8 q=49.2 size=       0KiB time=00:00:01.08 bitrate=   0.3kbits/s speed=0.00692x elapsed=0:02:36.55    \nframe=  132 fps=0.8 q=49.2 size=       0KiB time=00:00:01.08 bitrate=   0.3kbits/s speed=0.0069x elapsed=0:02:37.08    \nframe=  132 fps=0.8 q=49.2 size=       0KiB time=00:00:01.08 bitrate=   0.3kbits/s speed=0.00687x elapsed=0:02:37.61    \nframe=  132 fps=0.8 q=49.2 size=       0KiB time=00:00:01.08 bitrate=   0.3kbits/s speed=0.00685x elapsed=0:02:38.11    \nframe=  132 fps=0.8 q=49.2 size=       0KiB time=00:00:01.08 bitrate=   0.3kbits/s speed=0.00683x elapsed=0:02:38.64    \nframe=  133 fps=0.8 q=51.0 size=       0KiB time=00:00:01.09 bitrate=   0.3kbits/s speed=0.00686x elapsed=0:02:39.15    \nframe=  134 fps=0.8 q=50.0 size=       0KiB time=00:00:01.10 bitrate=   0.3kbits/s speed=0.00689x elapsed=0:02:39.66    \nframe=  134 fps=0.8 q=50.0 size=       0KiB time=00:00:01.10 bitrate=   0.3kbits/s speed=0.00687x elapsed=0:02:40.18    \nframe=  134 fps=0.8 q=50.0 size=       0KiB time=00:00:01.10 bitrate=   0.3kbits/s speed=0.00684x elapsed=0:02:40.70    \nframe=  135 fps=0.8 q=47.3 size=       0KiB time=00:00:01.10 bitrate=   0.3kbits/s speed=0.00687x elapsed=0:02:41.22    \nframe=  135 fps=0.8 q=47.3 size=       0KiB time=00:00:01.10 bitrate=   0.3kbits/s speed=0.00685x elapsed=0:02:41.76    \nframe=  136 fps=0.8 q=49.1 size=       0KiB time=00:00:01.11 bitrate=   0.3kbits/s speed=0.00688x elapsed=0:02:42.28    \nframe=  136 fps=0.8 q=49.1 size=       0KiB time=00:00:01.11 bitrate=   0.3kbits/s speed=0.00686x elapsed=0:02:42.80    \nframe=  137 fps=0.8 q=50.8 size=       0KiB time=00:00:01.12 bitrate=   0.3kbits/s speed=0.00689x elapsed=0:02:43.32    \nframe=  137 fps=0.8 q=50.8 size=       0KiB time=00:00:01.12 bitrate=   0.3kbits/s speed=0.00687x elapsed=0:02:43.84    \nframe=  138 fps=0.8 q=50.9 size=       0KiB time=00:00:01.13 bitrate=   0.3kbits/s speed=0.0069x elapsed=0:02:44.35    \nframe=  138 fps=0.8 q=50.9 size=       0KiB time=00:00:01.13 bitrate=   0.3kbits/s speed=0.00687x elapsed=0:02:44.87    \nframe=  139 fps=0.8 q=47.1 size=       0KiB time=00:00:01.14 bitrate=   0.3kbits/s speed=0.0069x elapsed=0:02:45.38    \nframe=  139 fps=0.8 q=47.1 size=       0KiB time=00:00:01.14 bitrate=   0.3kbits/s speed=0.00688x elapsed=0:02:45.90    \nframe=  140 fps=0.8 q=49.4 size=       0KiB time=00:00:01.15 bitrate=   0.3kbits/s speed=0.00691x elapsed=0:02:46.41    \nframe=  140 fps=0.8 q=49.4 size=       0KiB time=00:00:01.15 bitrate=   0.3kbits/s speed=0.00689x elapsed=0:02:46.93    \nframe=  141 fps=0.8 q=50.9 size=       0KiB time=00:00:01.15 bitrate=   0.3kbits/s speed=0.00692x elapsed=0:02:47.44    \nframe=  141 fps=0.8 q=50.9 size=       0KiB time=00:00:01.15 bitrate=   0.3kbits/s speed=0.0069x elapsed=0:02:47.96    \nframe=  142 fps=0.8 q=50.8 size=       0KiB time=00:00:01.16 bitrate=   0.3kbits/s speed=0.00692x elapsed=0:02:48.48    \nframe=  142 fps=0.8 q=50.8 size=       0KiB time=00:00:01.16 bitrate=   0.3kbits/s speed=0.0069x elapsed=0:02:48.99    \nframe=  143 fps=0.8 q=47.6 size=       0KiB time=00:00:01.17 bitrate=   0.3kbits/s speed=0.00693x elapsed=0:02:49.51    \nframe=  143 fps=0.8 q=47.6 size=       0KiB time=00:00:01.17 bitrate=   0.3kbits/s speed=0.00691x elapsed=0:02:50.03    \nframe=  144 fps=0.8 q=49.3 size=       0KiB time=00:00:01.18 bitrate=   0.3kbits/s speed=0.00694x elapsed=0:02:50.56    \nframe=  144 fps=0.8 q=49.3 size=       0KiB time=00:00:01.18 bitrate=   0.3kbits/s speed=0.00692x elapsed=0:02:51.07    \nframe=  144 fps=0.8 q=49.3 size=       0KiB time=00:00:01.18 bitrate=   0.3kbits/s speed=0.0069x elapsed=0:02:51.58    \nframe=  145 fps=0.8 q=50.9 size=       0KiB time=00:00:01.19 bitrate=   0.3kbits/s speed=0.00692x elapsed=0:02:52.10    \nframe=  145 fps=0.8 q=50.9 size=       0KiB time=00:00:01.19 bitrate=   0.3kbits/s speed=0.0069x elapsed=0:02:52.62    \nframe=  146 fps=0.8 q=50.9 size=       0KiB time=00:00:01.20 bitrate=   0.3kbits/s speed=0.00693x elapsed=0:02:53.13    \nframe=  147 fps=0.8 q=47.4 size=       0KiB time=00:00:01.20 bitrate=   0.3kbits/s speed=0.00696x elapsed=0:02:53.64    \nframe=  147 fps=0.8 q=47.4 size=       0KiB time=00:00:01.20 bitrate=   0.3kbits/s speed=0.00694x elapsed=0:02:54.17    \nframe=  147 fps=0.8 q=47.4 size=       0KiB time=00:00:01.20 bitrate=   0.3kbits/s speed=0.00692x elapsed=0:02:54.68    \nframe=  147 fps=0.8 q=47.4 size=       0KiB time=00:00:01.20 bitrate=   0.3kbits/s speed=0.0069x elapsed=0:02:55.20    \nframe=  147 fps=0.8 q=47.4 size=       0KiB time=00:00:01.20 bitrate=   0.3kbits/s speed=0.00688x elapsed=0:02:55.73    \nframe=  148 fps=0.8 q=49.5 size=       0KiB time=00:00:01.21 bitrate=   0.3kbits/s speed=0.0069x elapsed=0:02:56.26    \nframe=  148 fps=0.8 q=49.5 size=       0KiB time=00:00:01.21 bitrate=   0.3kbits/s speed=0.00688x elapsed=0:02:56.77    \nframe=  148 fps=0.8 q=49.5 size=       0KiB time=00:00:01.21 bitrate=   0.3kbits/s speed=0.00686x elapsed=0:02:57.29    \nframe=  148 fps=0.8 q=49.5 size=       0KiB time=00:00:01.21 bitrate=   0.3kbits/s speed=0.00684x elapsed=0:02:57.81    \nframe=  148 fps=0.8 q=49.5 size=       0KiB time=00:00:01.21 bitrate=   0.3kbits/s speed=0.00682x elapsed=0:02:58.32    \nframe=  148 fps=0.8 q=49.5 size=       0KiB time=00:00:01.21 bitrate=   0.3kbits/s speed=0.0068x elapsed=0:02:58.85    \nframe=  148 fps=0.8 q=49.5 size=       0KiB time=00:00:01.21 bitrate=   0.3kbits/s speed=0.00678x elapsed=0:02:59.36    \nframe=  148 fps=0.8 q=49.5 size=       0KiB time=00:00:01.21 bitrate=   0.3kbits/s speed=0.00676x elapsed=0:02:59.89    \nframe=  149 fps=0.8 q=51.0 size=       0KiB time=00:00:01.22 bitrate=   0.3kbits/s speed=0.00679x elapsed=0:03:00.41    \nframe=  149 fps=0.8 q=51.0 size=       0KiB time=00:00:01.22 bitrate=   0.3kbits/s speed=0.00677x elapsed=0:03:00.93    \nframe=  149 fps=0.8 q=51.0 size=       0KiB time=00:00:01.22 bitrate=   0.3kbits/s speed=0.00675x elapsed=0:03:01.46    \nframe=  149 fps=0.8 q=51.0 size=       0KiB time=00:00:01.22 bitrate=   0.3kbits/s speed=0.00673x elapsed=0:03:01.98    \nframe=  149 fps=0.8 q=51.0 size=       0KiB time=00:00:01.22 bitrate=   0.3kbits/s speed=0.00671x elapsed=0:03:02.51    \nframe=  149 fps=0.8 q=51.0 size=       0KiB time=00:00:01.22 bitrate=   0.3kbits/s speed=0.00669x elapsed=0:03:03.04    \nframe=  149 fps=0.8 q=51.0 size=       0KiB time=00:00:01.22 bitrate=   0.3kbits/s speed=0.00667x elapsed=0:03:03.56    \nframe=  149 fps=0.8 q=51.0 size=       0KiB time=00:00:01.22 bitrate=   0.3kbits/s speed=0.00665x elapsed=0:03:04.07    \nframe=  149 fps=0.8 q=51.0 size=       0KiB time=00:00:01.22 bitrate=   0.3kbits/s speed=0.00664x elapsed=0:03:04.59    \nframe=  149 fps=0.8 q=51.0 size=       0KiB time=00:00:01.22 bitrate=   0.3kbits/s speed=0.00662x elapsed=0:03:05.10    \nframe=  149 fps=0.8 q=51.0 size=       0KiB time=00:00:01.22 bitrate=   0.3kbits/s speed=0.0066x elapsed=0:03:05.62    \nframe=  149 fps=0.8 q=51.0 size=       0KiB time=00:00:01.22 bitrate=   0.3kbits/s speed=0.00658x elapsed=0:03:06.13    \nframe=  149 fps=0.8 q=51.0 size=       0KiB time=00:00:01.22 bitrate=   0.3kbits/s speed=0.00656x elapsed=0:03:06.66    \nframe=  150 fps=0.8 q=51.0 size=       0KiB time=00:00:01.23 bitrate=   0.3kbits/s speed=0.00659x elapsed=0:03:07.18    \nframe=  150 fps=0.8 q=51.0 size=       0KiB time=00:00:01.23 bitrate=   0.3kbits/s speed=0.00657x elapsed=0:03:07.71    \nframe=  150 fps=0.8 q=51.0 size=       0KiB time=00:00:01.23 bitrate=   0.3kbits/s speed=0.00655x elapsed=0:03:08.23    \nframe=  150 fps=0.8 q=51.0 size=       0KiB time=00:00:01.23 bitrate=   0.3kbits/s speed=0.00653x elapsed=0:03:08.74    \nframe=  150 fps=0.8 q=51.0 size=       0KiB time=00:00:01.23 bitrate=   0.3kbits/s speed=0.00652x elapsed=0:03:09.26    \nframe=  151 fps=0.8 q=46.5 size=       0KiB time=00:00:01.24 bitrate=   0.3kbits/s speed=0.00654x elapsed=0:03:09.79    \nframe=  151 fps=0.8 q=46.5 size=       0KiB time=00:00:01.24 bitrate=   0.3kbits/s speed=0.00652x elapsed=0:03:10.32    \nframe=  151 fps=0.8 q=46.5 size=       0KiB time=00:00:01.24 bitrate=   0.3kbits/s speed=0.00651x elapsed=0:03:10.83    \nframe=  151 fps=0.8 q=46.5 size=       0KiB time=00:00:01.24 bitrate=   0.3kbits/s speed=0.00649x elapsed=0:03:11.35    \nframe=  151 fps=0.8 q=46.5 size=       0KiB time=00:00:01.24 bitrate=   0.3kbits/s speed=0.00647x elapsed=0:03:11.87    \nframe=  151 fps=0.8 q=46.5 size=       0KiB time=00:00:01.24 bitrate=   0.3kbits/s speed=0.00645x elapsed=0:03:12.38    \nframe=  152 fps=0.8 q=49.4 size=       0KiB time=00:00:01.25 bitrate=   0.3kbits/s speed=0.00648x elapsed=0:03:12.91    \nframe=  152 fps=0.8 q=49.4 size=       0KiB time=00:00:01.25 bitrate=   0.3kbits/s speed=0.00646x elapsed=0:03:13.42    \nframe=  153 fps=0.8 q=51.0 size=       0KiB time=00:00:01.25 bitrate=   0.3kbits/s speed=0.00649x elapsed=0:03:13.95    \nframe=  153 fps=0.8 q=51.0 size=       0KiB time=00:00:01.25 bitrate=   0.3kbits/s speed=0.00647x elapsed=0:03:14.46    \nframe=  154 fps=0.8 q=51.0 size=       0KiB time=00:00:01.26 bitrate=   0.3kbits/s speed=0.0065x elapsed=0:03:14.98    \nframe=  154 fps=0.8 q=51.0 size=       0KiB time=00:00:01.26 bitrate=   0.3kbits/s speed=0.00648x elapsed=0:03:15.49    \nframe=  155 fps=0.8 q=48.1 size=       0KiB time=00:00:01.27 bitrate=   0.3kbits/s speed=0.0065x elapsed=0:03:16.00    \nframe=  155 fps=0.8 q=48.1 size=       0KiB time=00:00:01.27 bitrate=   0.3kbits/s speed=0.00649x elapsed=0:03:16.53    \nframe=  155 fps=0.8 q=48.1 size=       0KiB time=00:00:01.27 bitrate=   0.3kbits/s speed=0.00647x elapsed=0:03:17.04    \nframe=  156 fps=0.8 q=50.0 size=       0KiB time=00:00:01.28 bitrate=   0.3kbits/s speed=0.0065x elapsed=0:03:17.56    \nframe=  156 fps=0.8 q=50.0 size=       0KiB time=00:00:01.28 bitrate=   0.3kbits/s speed=0.00648x elapsed=0:03:18.07    \nframe=  156 fps=0.8 q=50.0 size=       0KiB time=00:00:01.28 bitrate=   0.3kbits/s speed=0.00646x elapsed=0:03:18.58    \nframe=  157 fps=0.8 q=51.0 size=       0KiB time=00:00:01.29 bitrate=   0.3kbits/s speed=0.00649x elapsed=0:03:19.10    \nframe=  157 fps=0.8 q=51.0 size=       0KiB time=00:00:01.29 bitrate=   0.3kbits/s speed=0.00647x elapsed=0:03:19.62    \nframe=  158 fps=0.8 q=50.9 size=       0KiB time=00:00:01.30 bitrate=   0.3kbits/s speed=0.0065x elapsed=0:03:20.13    \nframe=  158 fps=0.8 q=50.9 size=       0KiB time=00:00:01.30 bitrate=   0.3kbits/s speed=0.00648x elapsed=0:03:20.66    \nframe=  158 fps=0.8 q=50.9 size=       0KiB time=00:00:01.30 bitrate=   0.3kbits/s speed=0.00646x elapsed=0:03:21.17    \nframe=  158 fps=0.8 q=50.9 size=       0KiB time=00:00:01.30 bitrate=   0.3kbits/s speed=0.00645x elapsed=0:03:21.68    \nframe=  158 fps=0.8 q=50.9 size=       0KiB time=00:00:01.30 bitrate=   0.3kbits/s speed=0.00643x elapsed=0:03:22.19    \nframe=  159 fps=0.8 q=47.1 size=       0KiB time=00:00:01.30 bitrate=   0.3kbits/s speed=0.00645x elapsed=0:03:22.70    \nframe=  160 fps=0.8 q=50.1 size=       0KiB time=00:00:01.31 bitrate=   0.3kbits/s speed=0.00648x elapsed=0:03:23.22    \nframe=  161 fps=0.8 q=51.0 size=       0KiB time=00:00:01.32 bitrate=   0.3kbits/s speed=0.0065x elapsed=0:03:23.74    \nframe=  161 fps=0.8 q=51.0 size=       0KiB time=00:00:01.32 bitrate=   0.3kbits/s speed=0.00649x elapsed=0:03:24.26    \nframe=  161 fps=0.8 q=51.0 size=       0KiB time=00:00:01.32 bitrate=   0.3kbits/s speed=0.00647x elapsed=0:03:24.78    \nframe=  162 fps=0.8 q=51.0 size=       0KiB time=00:00:01.33 bitrate=   0.3kbits/s speed=0.00649x elapsed=0:03:25.29    \nframe=  162 fps=0.8 q=51.0 size=       0KiB time=00:00:01.33 bitrate=   0.3kbits/s speed=0.00648x elapsed=0:03:25.81    \nframe=  162 fps=0.8 q=51.0 size=       0KiB time=00:00:01.33 bitrate=   0.3kbits/s speed=0.00646x elapsed=0:03:26.32    \nframe=  162 fps=0.8 q=51.0 size=       0KiB time=00:00:01.33 bitrate=   0.3kbits/s speed=0.00645x elapsed=0:03:26.83    \nframe=  163 fps=0.8 q=48.0 size=       0KiB time=00:00:01.34 bitrate=   0.3kbits/s speed=0.00647x elapsed=0:03:27.35    \nframe=  163 fps=0.8 q=48.0 size=       0KiB time=00:00:01.34 bitrate=   0.3kbits/s speed=0.00645x elapsed=0:03:27.87    \nframe=  164 fps=0.8 q=50.0 size=       0KiB time=00:00:01.35 bitrate=   0.3kbits/s speed=0.00648x elapsed=0:03:28.38    \nframe=  165 fps=0.8 q=51.0 size=       0KiB time=00:00:01.35 bitrate=   0.3kbits/s speed=0.0065x elapsed=0:03:28.90    \nframe=  165 fps=0.8 q=51.0 size=       0KiB time=00:00:01.35 bitrate=   0.3kbits/s speed=0.00649x elapsed=0:03:29.41    \nframe=  166 fps=0.8 q=50.9 size=       0KiB time=00:00:01.36 bitrate=   0.3kbits/s speed=0.00651x elapsed=0:03:29.92    \nframe=  166 fps=0.8 q=50.9 size=       0KiB time=00:00:01.36 bitrate=   0.3kbits/s speed=0.00649x elapsed=0:03:30.45    \nframe=  166 fps=0.8 q=50.9 size=       0KiB time=00:00:01.36 bitrate=   0.3kbits/s speed=0.00648x elapsed=0:03:30.96    \nframe=  166 fps=0.8 q=50.9 size=       0KiB time=00:00:01.36 bitrate=   0.3kbits/s speed=0.00646x elapsed=0:03:31.47    \nframe=  166 fps=0.8 q=50.9 size=       0KiB time=00:00:01.36 bitrate=   0.3kbits/s speed=0.00645x elapsed=0:03:31.98    \nframe=  166 fps=0.8 q=50.9 size=       0KiB time=00:00:01.36 bitrate=   0.3kbits/s speed=0.00643x elapsed=0:03:32.51    \nframe=  167 fps=0.8 q=47.0 size=       0KiB time=00:00:01.37 bitrate=   0.3kbits/s speed=0.00645x elapsed=0:03:33.02    \nframe=  167 fps=0.8 q=47.0 size=       0KiB time=00:00:01.37 bitrate=   0.3kbits/s speed=0.00644x elapsed=0:03:33.54    \nframe=  168 fps=0.8 q=49.9 size=       0KiB time=00:00:01.38 bitrate=   0.3kbits/s speed=0.00646x elapsed=0:03:34.06    \nframe=  168 fps=0.8 q=49.9 size=       0KiB time=00:00:01.38 bitrate=   0.3kbits/s speed=0.00645x elapsed=0:03:34.58    \nframe=  169 fps=0.8 q=51.0 size=       0KiB time=00:00:01.39 bitrate=   0.3kbits/s speed=0.00647x elapsed=0:03:35.08    \nframe=  169 fps=0.8 q=51.0 size=       0KiB time=00:00:01.39 bitrate=   0.3kbits/s speed=0.00645x elapsed=0:03:35.60    \nframe=  169 fps=0.8 q=51.0 size=       0KiB time=00:00:01.39 bitrate=   0.3kbits/s speed=0.00644x elapsed=0:03:36.11    \nframe=  170 fps=0.8 q=51.0 size=       0KiB time=00:00:01.40 bitrate=   0.3kbits/s speed=0.00646x elapsed=0:03:36.64    \nframe=  171 fps=0.8 q=47.4 size=       0KiB time=00:00:01.40 bitrate=   0.2kbits/s speed=0.00649x elapsed=0:03:37.14    \nframe=  171 fps=0.8 q=47.4 size=       0KiB time=00:00:01.40 bitrate=   0.2kbits/s speed=0.00647x elapsed=0:03:37.66    \nframe=  171 fps=0.8 q=47.4 size=       0KiB time=00:00:01.40 bitrate=   0.2kbits/s speed=0.00645x elapsed=0:03:38.18    \nframe=  172 fps=0.8 q=50.5 size=       0KiB time=00:00:01.41 bitrate=   0.2kbits/s speed=0.00648x elapsed=0:03:38.70    \nframe=  172 fps=0.8 q=50.5 size=       0KiB time=00:00:01.41 bitrate=   0.2kbits/s speed=0.00646x elapsed=0:03:39.21    \nframe=  173 fps=0.8 q=51.0 size=       0KiB time=00:00:01.42 bitrate=   0.2kbits/s speed=0.00649x elapsed=0:03:39.73    \nframe=  173 fps=0.8 q=51.0 size=       0KiB time=00:00:01.42 bitrate=   0.2kbits/s speed=0.00647x elapsed=0:03:40.24    \nframe=  174 fps=0.8 q=51.0 size=       0KiB time=00:00:01.43 bitrate=   0.2kbits/s speed=0.00649x elapsed=0:03:40.75    \nframe=  174 fps=0.8 q=51.0 size=       0KiB time=00:00:01.43 bitrate=   0.2kbits/s speed=0.00648x elapsed=0:03:41.27    \nframe=  174 fps=0.8 q=51.0 size=       0KiB time=00:00:01.43 bitrate=   0.2kbits/s speed=0.00646x elapsed=0:03:41.79    \nframe=  175 fps=0.8 q=47.4 size=       0KiB time=00:00:01.44 bitrate=   0.2kbits/s speed=0.00649x elapsed=0:03:42.30    \nframe=  175 fps=0.8 q=47.4 size=       0KiB time=00:00:01.44 bitrate=   0.2kbits/s speed=0.00647x elapsed=0:03:42.83    \nframe=  176 fps=0.8 q=50.5 size=       0KiB time=00:00:01.45 bitrate=   0.2kbits/s speed=0.00649x elapsed=0:03:43.33    \nframe=  176 fps=0.8 q=50.5 size=       0KiB time=00:00:01.45 bitrate=   0.2kbits/s speed=0.00648x elapsed=0:03:43.85    \nframe=  176 fps=0.8 q=50.5 size=       0KiB time=00:00:01.45 bitrate=   0.2kbits/s speed=0.00646x elapsed=0:03:44.36    \nframe=  177 fps=0.8 q=51.0 size=       0KiB time=00:00:01.45 bitrate=   0.2kbits/s speed=0.00648x elapsed=0:03:44.88    \nframe=  177 fps=0.8 q=51.0 size=       0KiB time=00:00:01.45 bitrate=   0.2kbits/s speed=0.00647x elapsed=0:03:45.41    \nframe=  178 fps=0.8 q=51.0 size=       0KiB time=00:00:01.46 bitrate=   0.2kbits/s speed=0.00649x elapsed=0:03:45.93    \nframe=  178 fps=0.8 q=51.0 size=       0KiB time=00:00:01.46 bitrate=   0.2kbits/s speed=0.00648x elapsed=0:03:46.44    \nframe=  179 fps=0.8 q=48.2 size=       0KiB time=00:00:01.47 bitrate=   0.2kbits/s speed=0.0065x elapsed=0:03:46.96    \nframe=  179 fps=0.8 q=48.2 size=       0KiB time=00:00:01.47 bitrate=   0.2kbits/s speed=0.00648x elapsed=0:03:47.47    \nframe=  179 fps=0.8 q=48.2 size=       0KiB time=00:00:01.47 bitrate=   0.2kbits/s speed=0.00647x elapsed=0:03:47.99    \nframe=  180 fps=0.8 q=50.4 size=       0KiB time=00:00:01.48 bitrate=   0.2kbits/s speed=0.00649x elapsed=0:03:48.50    \nframe=  180 fps=0.8 q=50.4 size=       0KiB time=00:00:01.48 bitrate=   0.2kbits/s speed=0.00648x elapsed=0:03:49.03    \nframe=  180 fps=0.8 q=50.4 size=       0KiB time=00:00:01.48 bitrate=   0.2kbits/s speed=0.00646x elapsed=0:03:49.55    \nframe=  181 fps=0.8 q=51.0 size=       0KiB time=00:00:01.49 bitrate=   0.2kbits/s speed=0.00648x elapsed=0:03:50.06    \nframe=  181 fps=0.8 q=51.0 size=       0KiB time=00:00:01.49 bitrate=   0.2kbits/s speed=0.00647x elapsed=0:03:50.56    \nframe=  181 fps=0.8 q=51.0 size=       0KiB time=00:00:01.49 bitrate=   0.2kbits/s speed=0.00646x elapsed=0:03:51.08    \nframe=  182 fps=0.8 q=51.0 size=       0KiB time=00:00:01.50 bitrate=   0.2kbits/s speed=0.00648x elapsed=0:03:51.60    \nframe=  182 fps=0.8 q=51.0 size=       0KiB time=00:00:01.50 bitrate=   0.2kbits/s speed=0.00646x elapsed=0:03:52.12    \nframe=  183 fps=0.8 q=47.4 size=       0KiB time=00:00:01.50 bitrate=   0.2kbits/s speed=0.00648x elapsed=0:03:52.63    \nframe=  184 fps=0.8 q=50.1 size=       0KiB time=00:00:01.51 bitrate=   0.2kbits/s speed=0.00651x elapsed=0:03:53.14    \nframe=  184 fps=0.8 q=50.1 size=       0KiB time=00:00:01.51 bitrate=   0.2kbits/s speed=0.00649x elapsed=0:03:53.66    \nframe=  185 fps=0.8 q=50.9 size=       0KiB time=00:00:01.52 bitrate=   0.2kbits/s speed=0.00651x elapsed=0:03:54.18    \nframe=  185 fps=0.8 q=50.9 size=       0KiB time=00:00:01.52 bitrate=   0.2kbits/s speed=0.0065x elapsed=0:03:54.70    \nframe=  185 fps=0.8 q=50.9 size=       0KiB time=00:00:01.52 bitrate=   0.2kbits/s speed=0.00648x elapsed=0:03:55.21    \nframe=  186 fps=0.8 q=50.9 size=       0KiB time=00:00:01.53 bitrate=   0.2kbits/s speed=0.0065x elapsed=0:03:55.72    \nframe=  186 fps=0.8 q=50.9 size=       0KiB time=00:00:01.53 bitrate=   0.2kbits/s speed=0.00649x elapsed=0:03:56.24    \nframe=  187 fps=0.8 q=48.1 size=       0KiB time=00:00:01.54 bitrate=   0.2kbits/s speed=0.00651x elapsed=0:03:56.76    \nframe=  187 fps=0.8 q=48.1 size=       0KiB time=00:00:01.54 bitrate=   0.2kbits/s speed=0.0065x elapsed=0:03:57.28    \nframe=  188 fps=0.8 q=50.2 size=       0KiB time=00:00:01.55 bitrate=   0.2kbits/s speed=0.00652x elapsed=0:03:57.79    \nframe=  188 fps=0.8 q=50.2 size=       0KiB time=00:00:01.55 bitrate=   0.2kbits/s speed=0.0065x elapsed=0:03:58.31    \nframe=  188 fps=0.8 q=50.2 size=       0KiB time=00:00:01.55 bitrate=   0.2kbits/s speed=0.00649x elapsed=0:03:58.81    \nframe=  189 fps=0.8 q=51.0 size=       0KiB time=00:00:01.55 bitrate=   0.2kbits/s speed=0.00651x elapsed=0:03:59.33    \nframe=  189 fps=0.8 q=51.0 size=       0KiB time=00:00:01.55 bitrate=   0.2kbits/s speed=0.0065x elapsed=0:03:59.85    \nframe=  189 fps=0.8 q=51.0 size=       0KiB time=00:00:01.55 bitrate=   0.2kbits/s speed=0.00648x elapsed=0:04:00.36    \nframe=  190 fps=0.8 q=51.0 size=       0KiB time=00:00:01.56 bitrate=   0.2kbits/s speed=0.0065x elapsed=0:04:00.88    \nframe=  191 fps=0.8 q=47.2 size=       0KiB time=00:00:01.57 bitrate=   0.2kbits/s speed=0.00652x elapsed=0:04:01.40    \nframe=  191 fps=0.8 q=47.2 size=       0KiB time=00:00:01.57 bitrate=   0.2kbits/s speed=0.00651x elapsed=0:04:01.92    \nframe=  192 fps=0.8 q=50.4 size=       0KiB time=00:00:01.58 bitrate=   0.2kbits/s speed=0.00653x elapsed=0:04:02.43    \nframe=  192 fps=0.8 q=50.4 size=       0KiB time=00:00:01.58 bitrate=   0.2kbits/s speed=0.00652x elapsed=0:04:02.95    \nframe=  192 fps=0.8 q=50.4 size=       0KiB time=00:00:01.58 bitrate=   0.2kbits/s speed=0.0065x elapsed=0:04:03.45    \nframe=  193 fps=0.8 q=50.9 size=       0KiB time=00:00:01.59 bitrate=   0.2kbits/s speed=0.00652x elapsed=0:04:03.98    \nframe=  194 fps=0.8 q=51.0 size=       0KiB time=00:00:01.60 bitrate=   0.2kbits/s speed=0.00654x elapsed=0:04:04.49    \nframe=  194 fps=0.8 q=51.0 size=       0KiB time=00:00:01.60 bitrate=   0.2kbits/s speed=0.00653x elapsed=0:04:05.00    \nframe=  195 fps=0.8 q=47.9 size=       0KiB time=00:00:01.60 bitrate=   0.2kbits/s speed=0.00655x elapsed=0:04:05.52    \nframe=  195 fps=0.8 q=47.9 size=       0KiB time=00:00:01.60 bitrate=   0.2kbits/s speed=0.00654x elapsed=0:04:06.03    \nframe=  196 fps=0.8 q=50.1 size=       0KiB time=00:00:01.61 bitrate=   0.2kbits/s speed=0.00656x elapsed=0:04:06.55    \nframe=  196 fps=0.8 q=50.1 size=       0KiB time=00:00:01.61 bitrate=   0.2kbits/s speed=0.00654x elapsed=0:04:07.07    \nframe=  196 fps=0.8 q=50.1 size=       0KiB time=00:00:01.61 bitrate=   0.2kbits/s speed=0.00653x elapsed=0:04:07.59    \nframe=  197 fps=0.8 q=51.0 size=       0KiB time=00:00:01.62 bitrate=   0.2kbits/s speed=0.00655x elapsed=0:04:08.11    \nframe=  197 fps=0.8 q=51.0 size=       0KiB time=00:00:01.62 bitrate=   0.2kbits/s speed=0.00654x elapsed=0:04:08.61    \nframe=  198 fps=0.8 q=50.9 size=       0KiB time=00:00:01.63 bitrate=   0.2kbits/s speed=0.00656x elapsed=0:04:09.13    \nframe=  198 fps=0.8 q=50.9 size=       0KiB time=00:00:01.63 bitrate=   0.2kbits/s speed=0.00654x elapsed=0:04:09.65    \nframe=  198 fps=0.8 q=50.9 size=       0KiB time=00:00:01.63 bitrate=   0.2kbits/s speed=0.00653x elapsed=0:04:10.16    \nframe=  198 fps=0.8 q=50.9 size=       0KiB time=00:00:01.63 bitrate=   0.2kbits/s speed=0.00652x elapsed=0:04:10.68    \nframe=  199 fps=0.8 q=47.4 size=       0KiB time=00:00:01.64 bitrate=   0.2kbits/s speed=0.00654x elapsed=0:04:11.19    \nframe=  199 fps=0.8 q=47.4 size=       0KiB time=00:00:01.64 bitrate=   0.2kbits/s speed=0.00652x elapsed=0:04:11.71    \nframe=  200 fps=0.8 q=50.4 size=       0KiB time=00:00:01.65 bitrate=   0.2kbits/s speed=0.00654x elapsed=0:04:12.24    \nframe=  200 fps=0.8 q=50.4 size=       0KiB time=00:00:01.65 bitrate=   0.2kbits/s speed=0.00653x elapsed=0:04:12.77    \nframe=  201 fps=0.8 q=50.9 size=       0KiB time=00:00:01.65 bitrate=   0.2kbits/s speed=0.00655x elapsed=0:04:13.29    \nframe=  201 fps=0.8 q=50.9 size=       0KiB time=00:00:01.65 bitrate=   0.2kbits/s speed=0.00653x elapsed=0:04:13.81    \nframe=  202 fps=0.8 q=51.0 size=       0KiB time=00:00:01.66 bitrate=   0.2kbits/s speed=0.00655x elapsed=0:04:14.32    \nframe=  202 fps=0.8 q=51.0 size=       0KiB time=00:00:01.66 bitrate=   0.2kbits/s speed=0.00654x elapsed=0:04:14.83    \nframe=  203 fps=0.8 q=48.1 size=       0KiB time=00:00:01.67 bitrate=   0.2kbits/s speed=0.00656x elapsed=0:04:15.36    \nframe=  204 fps=0.8 q=50.6 size=       0KiB time=00:00:01.68 bitrate=   0.2kbits/s speed=0.00658x elapsed=0:04:15.86    \nframe=  204 fps=0.8 q=50.6 size=       0KiB time=00:00:01.68 bitrate=   0.2kbits/s speed=0.00657x elapsed=0:04:16.38    \nframe=  204 fps=0.8 q=50.6 size=       0KiB time=00:00:01.68 bitrate=   0.2kbits/s speed=0.00655x elapsed=0:04:16.90    \nframe=  205 fps=0.8 q=51.0 size=       0KiB time=00:00:01.69 bitrate=   0.2kbits/s speed=0.00657x elapsed=0:04:17.41    \nframe=  205 fps=0.8 q=51.0 size=       0KiB time=00:00:01.69 bitrate=   0.2kbits/s speed=0.00656x elapsed=0:04:17.93    \nframe=  205 fps=0.8 q=51.0 size=       0KiB time=00:00:01.69 bitrate=   0.2kbits/s speed=0.00655x elapsed=0:04:18.45    \nframe=  206 fps=0.8 q=51.0 size=       0KiB time=00:00:01.70 bitrate=   0.2kbits/s speed=0.00656x elapsed=0:04:18.96    \nframe=  206 fps=0.8 q=51.0 size=       0KiB time=00:00:01.70 bitrate=   0.2kbits/s speed=0.00655x elapsed=0:04:19.47    \nframe=  206 fps=0.8 q=51.0 size=       0KiB time=00:00:01.70 bitrate=   0.2kbits/s speed=0.00654x elapsed=0:04:19.99    \nframe=  206 fps=0.8 q=51.0 size=       0KiB time=00:00:01.70 bitrate=   0.2kbits/s speed=0.00653x elapsed=0:04:20.51    \nframe=  207 fps=0.8 q=47.5 size=       0KiB time=00:00:01.70 bitrate=   0.2kbits/s speed=0.00654x elapsed=0:04:21.03    \nframe=  208 fps=0.8 q=50.5 size=       0KiB time=00:00:01.71 bitrate=   0.2kbits/s speed=0.00656x elapsed=0:04:21.54    \nframe=  208 fps=0.8 q=50.5 size=       0KiB time=00:00:01.71 bitrate=   0.2kbits/s speed=0.00655x elapsed=0:04:22.05    \nframe=  209 fps=0.8 q=51.0 size=       0KiB time=00:00:01.72 bitrate=   0.2kbits/s speed=0.00657x elapsed=0:04:22.58    \nframe=  209 fps=0.8 q=51.0 size=       0KiB time=00:00:01.72 bitrate=   0.2kbits/s speed=0.00656x elapsed=0:04:23.09    \nframe=  210 fps=0.8 q=51.0 size=       0KiB time=00:00:01.73 bitrate=   0.2kbits/s speed=0.00658x elapsed=0:04:23.60    \nframe=  210 fps=0.8 q=51.0 size=       0KiB time=00:00:01.73 bitrate=   0.2kbits/s speed=0.00656x elapsed=0:04:24.11    \nframe=  211 fps=0.8 q=48.0 size=       0KiB time=00:00:01.74 bitrate=   0.2kbits/s speed=0.00658x elapsed=0:04:24.63    \nframe=  212 fps=0.8 q=50.3 size=       0KiB time=00:00:01.75 bitrate=   0.2kbits/s speed=0.0066x elapsed=0:04:25.15    \nframe=  212 fps=0.8 q=50.3 size=       0KiB time=00:00:01.75 bitrate=   0.2kbits/s speed=0.00659x elapsed=0:04:25.66    \nframe=  213 fps=0.8 q=51.0 size=       0KiB time=00:00:01.75 bitrate=   0.2kbits/s speed=0.00661x elapsed=0:04:26.18    \nframe=  213 fps=0.8 q=51.0 size=       0KiB time=00:00:01.75 bitrate=   0.2kbits/s speed=0.00659x elapsed=0:04:26.69    \nframe=  213 fps=0.8 q=51.0 size=       0KiB time=00:00:01.75 bitrate=   0.2kbits/s speed=0.00658x elapsed=0:04:27.21    \nframe=  214 fps=0.8 q=51.0 size=       0KiB time=00:00:01.76 bitrate=   0.2kbits/s speed=0.0066x elapsed=0:04:27.73    \nframe=  215 fps=0.8 q=47.7 size=       0KiB time=00:00:01.77 bitrate=   0.2kbits/s speed=0.00662x elapsed=0:04:28.24    \nframe=  215 fps=0.8 q=47.7 size=       0KiB time=00:00:01.77 bitrate=   0.2kbits/s speed=0.0066x elapsed=0:04:28.76    \nframe=  216 fps=0.8 q=50.0 size=       0KiB time=00:00:01.78 bitrate=   0.2kbits/s speed=0.00662x elapsed=0:04:29.28    \nframe=  216 fps=0.8 q=50.0 size=       0KiB time=00:00:01.78 bitrate=   0.2kbits/s speed=0.00661x elapsed=0:04:29.80    \nframe=  216 fps=0.8 q=50.0 size=       0KiB time=00:00:01.78 bitrate=   0.2kbits/s speed=0.0066x elapsed=0:04:30.32    \nframe=  217 fps=0.8 q=51.0 size=       0KiB time=00:00:01.79 bitrate=   0.2kbits/s speed=0.00662x elapsed=0:04:30.83    \nframe=  217 fps=0.8 q=51.0 size=       0KiB time=00:00:01.79 bitrate=   0.2kbits/s speed=0.0066x elapsed=0:04:31.35    \nframe=  218 fps=0.8 q=51.0 size=       0KiB time=00:00:01.80 bitrate=   0.2kbits/s speed=0.00662x elapsed=0:04:31.86    \nframe=  218 fps=0.8 q=51.0 size=       0KiB time=00:00:01.80 bitrate=   0.2kbits/s speed=0.00661x elapsed=0:04:32.38    \nframe=  218 fps=0.8 q=51.0 size=       0KiB time=00:00:01.80 bitrate=   0.2kbits/s speed=0.0066x elapsed=0:04:32.89    \nframe=  218 fps=0.8 q=51.0 size=       0KiB time=00:00:01.80 bitrate=   0.2kbits/s speed=0.00658x elapsed=0:04:33.42    \nframe=  219 fps=0.8 q=47.8 size=       0KiB time=00:00:01.80 bitrate=   0.2kbits/s speed=0.0066x elapsed=0:04:33.93    \nframe=  219 fps=0.8 q=47.8 size=       0KiB time=00:00:01.80 bitrate=   0.2kbits/s speed=0.00659x elapsed=0:04:34.44    \nframe=  219 fps=0.8 q=47.8 size=       0KiB time=00:00:01.80 bitrate=   0.2kbits/s speed=0.00658x elapsed=0:04:34.96    \nframe=  220 fps=0.8 q=50.4 size=       0KiB time=00:00:01.81 bitrate=   0.2kbits/s speed=0.00659x elapsed=0:04:35.49    \nframe=  220 fps=0.8 q=50.4 size=       0KiB time=00:00:01.81 bitrate=   0.2kbits/s speed=0.00658x elapsed=0:04:36.00    \nframe=  220 fps=0.8 q=50.4 size=       0KiB time=00:00:01.81 bitrate=   0.2kbits/s speed=0.00657x elapsed=0:04:36.53    \nframe=  220 fps=0.8 q=50.4 size=       0KiB time=00:00:01.81 bitrate=   0.2kbits/s speed=0.00656x elapsed=0:04:37.05    \nframe=  221 fps=0.8 q=51.0 size=       0KiB time=00:00:01.82 bitrate=   0.2kbits/s speed=0.00658x elapsed=0:04:37.56    \nframe=  221 fps=0.8 q=51.0 size=       0KiB time=00:00:01.82 bitrate=   0.2kbits/s speed=0.00656x elapsed=0:04:38.06    \nframe=  221 fps=0.8 q=51.0 size=       0KiB time=00:00:01.82 bitrate=   0.2kbits/s speed=0.00655x elapsed=0:04:38.58    \nframe=  222 fps=0.8 q=51.0 size=       0KiB time=00:00:01.83 bitrate=   0.2kbits/s speed=0.00657x elapsed=0:04:39.11    \nframe=  222 fps=0.8 q=51.0 size=       0KiB time=00:00:01.83 bitrate=   0.2kbits/s speed=0.00656x elapsed=0:04:39.62    \nframe=  222 fps=0.8 q=51.0 size=       0KiB time=00:00:01.83 bitrate=   0.2kbits/s speed=0.00654x elapsed=0:04:40.13    \nframe=  223 fps=0.8 q=47.9 size=       0KiB time=00:00:01.84 bitrate=   0.2kbits/s speed=0.00656x elapsed=0:04:40.65    \nframe=  224 fps=0.8 q=50.2 size=       0KiB time=00:00:01.85 bitrate=   0.2kbits/s speed=0.00658x elapsed=0:04:41.16    \nframe=  224 fps=0.8 q=50.2 size=       0KiB time=00:00:01.85 bitrate=   0.2kbits/s speed=0.00657x elapsed=0:04:41.68    \nframe=  224 fps=0.8 q=50.2 size=       0KiB time=00:00:01.85 bitrate=   0.2kbits/s speed=0.00656x elapsed=0:04:42.19    \nframe=  225 fps=0.8 q=50.9 size=       0KiB time=00:00:01.85 bitrate=   0.2kbits/s speed=0.00657x elapsed=0:04:42.71    \nframe=  226 fps=0.8 q=51.0 size=       0KiB time=00:00:01.86 bitrate=   0.2kbits/s speed=0.00659x elapsed=0:04:43.22    \nframe=  226 fps=0.8 q=51.0 size=       0KiB time=00:00:01.86 bitrate=   0.2kbits/s speed=0.00658x elapsed=0:04:43.74    \nframe=  226 fps=0.8 q=51.0 size=       0KiB time=00:00:01.86 bitrate=   0.2kbits/s speed=0.00657x elapsed=0:04:44.27    \nframe=  226 fps=0.8 q=51.0 size=       0KiB time=00:00:01.86 bitrate=   0.2kbits/s speed=0.00655x elapsed=0:04:44.80    \nframe=  226 fps=0.8 q=51.0 size=       0KiB time=00:00:01.86 bitrate=   0.2kbits/s speed=0.00654x elapsed=0:04:45.30    \nframe=  227 fps=0.8 q=49.2 size=       0KiB time=00:00:01.87 bitrate=   0.2kbits/s speed=0.00656x elapsed=0:04:45.83    \nframe=  227 fps=0.8 q=49.2 size=       0KiB time=00:00:01.87 bitrate=   0.2kbits/s speed=0.00655x elapsed=0:04:46.33    \nframe=  228 fps=0.8 q=51.0 size=       0KiB time=00:00:01.88 bitrate=   0.2kbits/s speed=0.00657x elapsed=0:04:46.86    \nframe=  228 fps=0.8 q=51.0 size=       0KiB time=00:00:01.88 bitrate=   0.2kbits/s speed=0.00655x elapsed=0:04:47.37    \nframe=  229 fps=0.8 q=51.0 size=       0KiB time=00:00:01.89 bitrate=   0.2kbits/s speed=0.00657x elapsed=0:04:47.88    \nframe=  229 fps=0.8 q=51.0 size=       0KiB time=00:00:01.89 bitrate=   0.2kbits/s speed=0.00656x elapsed=0:04:48.39    \nframe=  229 fps=0.8 q=51.0 size=       0KiB time=00:00:01.89 bitrate=   0.2kbits/s speed=0.00655x elapsed=0:04:48.91    \nframe=  230 fps=0.8 q=51.0 size=       0KiB time=00:00:01.90 bitrate=   0.2kbits/s speed=0.00656x elapsed=0:04:49.42    \nframe=  230 fps=0.8 q=51.0 size=       0KiB time=00:00:01.90 bitrate=   0.2kbits/s speed=0.00655x elapsed=0:04:49.95    \nframe=  232 fps=0.8 q=50.9 size=       0KiB time=00:00:01.91 bitrate=   0.2kbits/s speed=0.0066x elapsed=0:04:50.46    \nframe=  233 fps=0.8 q=51.0 size=       0KiB time=00:00:01.92 bitrate=   0.2kbits/s speed=0.00662x elapsed=0:04:50.97    \nframe=  234 fps=0.8 q=51.0 size=       0KiB time=00:00:01.93 bitrate=   0.2kbits/s speed=0.00663x elapsed=0:04:51.50    \nframe=  235 fps=0.8 q=49.4 size=       0KiB time=00:00:01.94 bitrate=   0.2kbits/s speed=0.00665x elapsed=0:04:52.00    \nframe=  236 fps=0.8 q=51.0 size=       0KiB time=00:00:01.95 bitrate=   0.2kbits/s speed=0.00667x elapsed=0:04:52.52    \nframe=  237 fps=0.8 q=51.0 size=       0KiB time=00:00:01.95 bitrate=   0.2kbits/s speed=0.00668x elapsed=0:04:53.04    \nframe=  238 fps=0.8 q=51.0 size=       0KiB time=00:00:01.96 bitrate=   0.2kbits/s speed=0.0067x elapsed=0:04:53.55    \nframe=  239 fps=0.8 q=49.2 size=       0KiB time=00:00:01.97 bitrate=   0.2kbits/s speed=0.00672x elapsed=0:04:54.06    \nframe=  241 fps=0.8 q=51.0 size=       0KiB time=00:00:01.99 bitrate=   0.2kbits/s speed=0.00676x elapsed=0:04:54.58    \nframe=  242 fps=0.8 q=51.0 size=       0KiB time=00:00:02.00 bitrate=   0.2kbits/s speed=0.00678x elapsed=0:04:55.11    \nframe=  243 fps=0.8 q=48.9 size=       0KiB time=00:00:02.00 bitrate=   0.2kbits/s speed=0.00679x elapsed=0:04:55.62    \nframe=  244 fps=0.8 q=50.9 size=       0KiB time=00:00:02.01 bitrate=   0.2kbits/s speed=0.00681x elapsed=0:04:56.15    \nframe=  246 fps=0.8 q=51.0 size=       0KiB time=00:00:02.03 bitrate=   0.2kbits/s speed=0.00685x elapsed=0:04:56.66    \nframe=  249 fps=0.8 q=51.0 size=       0KiB time=00:00:02.05 bitrate=   0.2kbits/s speed=0.00693x elapsed=0:04:57.18    \nframe=  250 fps=0.8 q=51.0 size=       0KiB time=00:00:02.06 bitrate=   0.2kbits/s speed=0.00694x elapsed=0:04:57.70    \nframe=  251 fps=0.8 q=44.9 size=       0KiB time=00:00:02.07 bitrate=   0.2kbits/s speed=0.00696x elapsed=0:04:58.21    \nframe=  254 fps=0.9 q=51.0 size=       0KiB time=00:00:02.10 bitrate=   0.2kbits/s speed=0.00703x elapsed=0:04:58.72    \nframe=  256 fps=0.9 q=51.0 size=       0KiB time=00:00:02.11 bitrate=   0.2kbits/s speed=0.00707x elapsed=0:04:59.24    \nframe=  257 fps=0.9 q=49.3 size=       0KiB time=00:00:02.12 bitrate=   0.2kbits/s speed=0.00709x elapsed=0:04:59.76    \nframe=  260 fps=0.9 q=51.0 size=       0KiB time=00:00:02.15 bitrate=   0.2kbits/s speed=0.00716x elapsed=0:05:00.27    \nframe=  261 fps=0.9 q=48.7 size=       0KiB time=00:00:02.15 bitrate=   0.2kbits/s speed=0.00718x elapsed=0:05:00.78    \nframe=  262 fps=0.9 q=49.6 size=     256KiB time=00:00:02.16 bitrate= 968.1kbits/s speed=0.00719x elapsed=0:05:01.31    \nframe=  264 fps=0.9 q=51.0 size=     256KiB time=00:00:02.18 bitrate= 960.7kbits/s speed=0.00723x elapsed=0:05:01.83    \nframe=  265 fps=0.9 q=51.0 size=     256KiB time=00:00:02.19 bitrate= 957.0kbits/s speed=0.00725x elapsed=0:05:02.33    \nframe=  267 fps=0.9 q=50.8 size=     256KiB time=00:00:02.20 bitrate= 949.8kbits/s speed=0.00729x elapsed=0:05:02.85    \nframe=  269 fps=0.9 q=51.0 size=     256KiB time=00:00:02.22 bitrate= 942.7kbits/s speed=0.00733x elapsed=0:05:03.37    \nframe=  269 fps=0.9 q=51.0 size=     256KiB time=00:00:02.22 bitrate= 942.7kbits/s speed=0.00732x elapsed=0:05:03.88    \nframe=  271 fps=0.9 q=50.8 size=     256KiB time=00:00:02.24 bitrate= 935.7kbits/s speed=0.00736x elapsed=0:05:04.39    \nframe=  273 fps=0.9 q=51.0 size=     256KiB time=00:00:02.25 bitrate= 928.8kbits/s speed=0.00741x elapsed=0:05:04.91    \nframe=  274 fps=0.9 q=48.9 size=     256KiB time=00:00:02.26 bitrate= 925.4kbits/s speed=0.00742x elapsed=0:05:05.42    \nframe=  276 fps=0.9 q=51.0 size=     256KiB time=00:00:02.28 bitrate= 918.6kbits/s speed=0.00746x elapsed=0:05:05.95    \nframe=  277 fps=0.9 q=51.0 size=     256KiB time=00:00:02.29 bitrate= 915.3kbits/s speed=0.00748x elapsed=0:05:06.46    \nframe=  279 fps=0.9 q=50.5 size=     256KiB time=00:00:02.30 bitrate= 908.7kbits/s speed=0.00752x elapsed=0:05:06.98    \nframe=  281 fps=0.9 q=51.0 size=     256KiB time=00:00:02.32 bitrate= 902.2kbits/s speed=0.00756x elapsed=0:05:07.49    \nframe=  283 fps=0.9 q=50.5 size=     256KiB time=00:00:02.34 bitrate= 895.7kbits/s speed=0.0076x elapsed=0:05:08.00    \nframe=  285 fps=0.9 q=50.9 size=     256KiB time=00:00:02.35 bitrate= 889.4kbits/s speed=0.00764x elapsed=0:05:08.52    \nframe=  287 fps=0.9 q=50.7 size=     256KiB time=00:00:02.37 bitrate= 883.2kbits/s speed=0.00768x elapsed=0:05:09.04    \nframe=  288 fps=0.9 q=51.0 size=     256KiB time=00:00:02.38 bitrate= 880.1kbits/s speed=0.0077x elapsed=0:05:09.55    \nframe=  290 fps=0.9 q=48.0 size=     256KiB time=00:00:02.40 bitrate= 874.0kbits/s speed=0.00774x elapsed=0:05:10.06    \nframe=  292 fps=0.9 q=51.0 size=     256KiB time=00:00:02.41 bitrate= 867.9kbits/s speed=0.00778x elapsed=0:05:10.58    \nframe=  294 fps=0.9 q=48.2 size=     256KiB time=00:00:02.43 bitrate= 862.0kbits/s speed=0.00782x elapsed=0:05:11.10    \nframe=  295 fps=0.9 q=50.6 size=     256KiB time=00:00:02.44 bitrate= 859.0kbits/s speed=0.00784x elapsed=0:05:11.62    \nframe=  297 fps=1.0 q=51.0 size=     256KiB time=00:00:02.45 bitrate= 853.2kbits/s speed=0.00788x elapsed=0:05:12.13    \nframe=  299 fps=1.0 q=50.5 size=     256KiB time=00:00:02.47 bitrate= 847.5kbits/s speed=0.00792x elapsed=0:05:12.64    \nframe=  301 fps=1.0 q=51.0 size=     256KiB time=00:00:02.49 bitrate= 841.8kbits/s speed=0.00796x elapsed=0:05:13.16    \nframe=  302 fps=1.0 q=47.8 size=     256KiB time=00:00:02.50 bitrate= 839.0kbits/s speed=0.00797x elapsed=0:05:13.68    \nframe=  304 fps=1.0 q=51.0 size=     256KiB time=00:00:02.51 bitrate= 833.4kbits/s speed=0.00801x elapsed=0:05:14.20    \nframe=  305 fps=1.0 q=51.0 size=     256KiB time=00:00:02.52 bitrate= 830.7kbits/s speed=0.00802x elapsed=0:05:14.71    \nframe=  307 fps=1.0 q=50.5 size=     256KiB time=00:00:02.54 bitrate= 825.2kbits/s speed=0.00806x elapsed=0:05:15.23    \nframe=  308 fps=1.0 q=51.0 size=     256KiB time=00:00:02.55 bitrate= 822.6kbits/s speed=0.00808x elapsed=0:05:15.74    \nframe=  310 fps=1.0 q=48.3 size=     256KiB time=00:00:02.56 bitrate= 817.2kbits/s speed=0.00812x elapsed=0:05:16.25    \nframe=  312 fps=1.0 q=51.0 size=     256KiB time=00:00:02.58 bitrate= 811.9kbits/s speed=0.00815x elapsed=0:05:16.77    \nframe=  314 fps=1.0 q=47.8 size=     256KiB time=00:00:02.60 bitrate= 806.7kbits/s speed=0.00819x elapsed=0:05:17.29    \nframe=  315 fps=1.0 q=50.6 size=     256KiB time=00:00:02.60 bitrate= 804.2kbits/s speed=0.00821x elapsed=0:05:17.80    \nframe=  317 fps=1.0 q=51.0 size=     256KiB time=00:00:02.62 bitrate= 799.0kbits/s speed=0.00825x elapsed=0:05:18.32    \nframe=  319 fps=1.0 q=50.6 size=     256KiB time=00:00:02.64 bitrate= 794.0kbits/s speed=0.00829x elapsed=0:05:18.83    \nframe=  321 fps=1.0 q=51.0 size=     256KiB time=00:00:02.65 bitrate= 789.0kbits/s speed=0.00832x elapsed=0:05:19.34    \nframe=  323 fps=1.0 q=50.8 size=     256KiB time=00:00:02.67 bitrate= 784.1kbits/s speed=0.00836x elapsed=0:05:19.86    \nframe=  325 fps=1.0 q=51.0 size=     256KiB time=00:00:02.69 bitrate= 779.3kbits/s speed=0.0084x elapsed=0:05:20.38    \nframe=  326 fps=1.0 q=48.4 size=     256KiB time=00:00:02.70 bitrate= 776.9kbits/s speed=0.00841x elapsed=0:05:20.89    \nframe=  328 fps=1.0 q=51.0 size=     256KiB time=00:00:02.71 bitrate= 772.1kbits/s speed=0.00845x elapsed=0:05:21.41    \nframe=  330 fps=1.0 q=48.0 size=     256KiB time=00:00:02.73 bitrate= 767.4kbits/s speed=0.00849x elapsed=0:05:21.93    \nframe=  331 fps=1.0 q=50.5 size=     256KiB time=00:00:02.74 bitrate= 765.0kbits/s speed=0.0085x elapsed=0:05:22.45    \nframe=  333 fps=1.0 q=51.0 size=     256KiB time=00:00:02.75 bitrate= 760.4kbits/s speed=0.00854x elapsed=0:05:22.96    \nframe=  335 fps=1.0 q=50.5 size=     256KiB time=00:00:02.77 bitrate= 755.9kbits/s speed=0.00858x elapsed=0:05:23.48    \nframe=  336 fps=1.0 q=51.0 size=     256KiB time=00:00:02.78 bitrate= 753.6kbits/s speed=0.00859x elapsed=0:05:23.99    \nframe=  338 fps=1.0 q=48.0 size=     256KiB time=00:00:02.80 bitrate= 749.1kbits/s speed=0.00863x elapsed=0:05:24.50    \nframe=  340 fps=1.0 q=51.0 size=     256KiB time=00:00:02.81 bitrate= 744.7kbits/s speed=0.00867x elapsed=0:05:25.02    \nframe=  342 fps=1.1 q=47.9 size=     256KiB time=00:00:02.83 bitrate= 740.3kbits/s speed=0.0087x elapsed=0:05:25.54    \nframe=  343 fps=1.1 q=50.8 size=     256KiB time=00:00:02.84 bitrate= 738.1kbits/s speed=0.00872x elapsed=0:05:26.05    \nframe=  345 fps=1.1 q=51.0 size=     256KiB time=00:00:02.85 bitrate= 733.8kbits/s speed=0.00875x elapsed=0:05:26.56    \nframe=  347 fps=1.1 q=50.4 size=     256KiB time=00:00:02.87 bitrate= 729.6kbits/s speed=0.00879x elapsed=0:05:27.09    \nframe=  349 fps=1.1 q=51.0 size=     256KiB time=00:00:02.89 bitrate= 725.4kbits/s speed=0.00883x elapsed=0:05:27.62    \nframe=  350 fps=1.1 q=48.7 size=     256KiB time=00:00:02.90 bitrate= 723.3kbits/s speed=0.00884x elapsed=0:05:28.13    \nframe=  352 fps=1.1 q=51.0 size=     256KiB time=00:00:02.91 bitrate= 719.1kbits/s speed=0.00887x elapsed=0:05:28.65    \nframe=  354 fps=1.1 q=48.1 size=     256KiB time=00:00:02.93 bitrate= 715.1kbits/s speed=0.00891x elapsed=0:05:29.16    \nframe=  355 fps=1.1 q=50.7 size=     256KiB time=00:00:02.94 bitrate= 713.0kbits/s speed=0.00892x elapsed=0:05:29.68    \nframe=  358 fps=1.1 q=48.4 size=     256KiB time=00:00:02.96 bitrate= 707.0kbits/s speed=0.00898x elapsed=0:05:30.19    \nframe=  359 fps=1.1 q=50.5 size=     256KiB time=00:00:02.97 bitrate= 705.0kbits/s speed=0.009x elapsed=0:05:30.71    \nframe=  361 fps=1.1 q=51.0 size=     256KiB time=00:00:02.99 bitrate= 701.1kbits/s speed=0.00903x elapsed=0:05:31.22    \nframe=  363 fps=1.1 q=50.6 size=     256KiB time=00:00:03.00 bitrate= 697.2kbits/s speed=0.00907x elapsed=0:05:31.74    \nframe=  365 fps=1.1 q=51.0 size=     256KiB time=00:00:03.02 bitrate= 693.4kbits/s speed=0.0091x elapsed=0:05:32.26    \nframe=  367 fps=1.1 q=50.7 size=     256KiB time=00:00:03.04 bitrate= 689.6kbits/s speed=0.00914x elapsed=0:05:32.77    \nframe=  369 fps=1.1 q=51.0 size=     256KiB time=00:00:03.05 bitrate= 685.8kbits/s speed=0.00918x elapsed=0:05:33.28    \nframe=  370 fps=1.1 q=48.5 size=     256KiB time=00:00:03.06 bitrate= 684.0kbits/s speed=0.00919x elapsed=0:05:33.80    \nframe=  372 fps=1.1 q=51.0 size=     256KiB time=00:00:03.08 bitrate= 680.3kbits/s speed=0.00922x elapsed=0:05:34.31    \nframe=  373 fps=1.1 q=51.0 size=     256KiB time=00:00:03.09 bitrate= 678.4kbits/s speed=0.00923x elapsed=0:05:34.84    \nframe=  376 fps=1.1 q=51.0 size=     256KiB time=00:00:03.11 bitrate= 673.0kbits/s speed=0.00929x elapsed=0:05:35.35    \nframe=  378 fps=1.1 q=48.4 size=     256KiB time=00:00:03.13 bitrate= 669.4kbits/s speed=0.00933x elapsed=0:05:35.87    \nframe=  380 fps=1.1 q=51.0 size=     256KiB time=00:00:03.15 bitrate= 665.9kbits/s speed=0.00936x elapsed=0:05:36.38    \nframe=  382 fps=1.1 q=48.7 size=     256KiB time=00:00:03.16 bitrate= 662.4kbits/s speed=0.0094x elapsed=0:05:36.90    \nframe=  385 fps=1.1 q=51.0 size=     256KiB time=00:00:03.19 bitrate= 657.2kbits/s speed=0.00946x elapsed=0:05:37.42    \nframe=  387 fps=1.1 q=50.7 size=     256KiB time=00:00:03.20 bitrate= 653.8kbits/s speed=0.00949x elapsed=0:05:37.92    \nframe=  389 fps=1.1 q=51.0 size=     256KiB time=00:00:03.22 bitrate= 650.4kbits/s speed=0.00953x elapsed=0:05:38.45    \nframe=  391 fps=1.2 q=50.7 size=     256KiB time=00:00:03.24 bitrate= 647.0kbits/s speed=0.00956x elapsed=0:05:38.96    \nframe=  393 fps=1.2 q=51.0 size=     256KiB time=00:00:03.25 bitrate= 643.7kbits/s speed=0.0096x elapsed=0:05:39.47    \nframe=  396 fps=1.2 q=51.0 size=     256KiB time=00:00:03.28 bitrate= 638.8kbits/s speed=0.00966x elapsed=0:05:39.99    \nframe=  398 fps=1.2 q=48.6 size=     256KiB time=00:00:03.30 bitrate= 635.6kbits/s speed=0.00969x elapsed=0:05:40.51    \nframe=  400 fps=1.2 q=51.0 size=     256KiB time=00:00:03.31 bitrate= 632.4kbits/s speed=0.00973x elapsed=0:05:41.02    \nframe=  402 fps=1.2 q=48.3 size=     256KiB time=00:00:03.33 bitrate= 629.3kbits/s speed=0.00976x elapsed=0:05:41.54    \nframe=  404 fps=1.2 q=51.0 size=     256KiB time=00:00:03.35 bitrate= 626.1kbits/s speed=0.00979x elapsed=0:05:42.05    \nframe=  406 fps=1.2 q=48.0 size=     256KiB time=00:00:03.36 bitrate= 623.0kbits/s speed=0.00983x elapsed=0:05:42.57    \nframe=  408 fps=1.2 q=51.0 size=     256KiB time=00:00:03.38 bitrate= 620.0kbits/s speed=0.00986x elapsed=0:05:43.08    \nframe=  410 fps=1.2 q=48.1 size=     256KiB time=00:00:03.40 bitrate= 616.9kbits/s speed=0.0099x elapsed=0:05:43.60    \nframe=  413 fps=1.2 q=51.0 size=     256KiB time=00:00:03.42 bitrate= 612.4kbits/s speed=0.00995x elapsed=0:05:44.12    \nframe=  415 fps=1.2 q=50.8 size=     256KiB time=00:00:03.44 bitrate= 609.4kbits/s speed=0.00999x elapsed=0:05:44.63    \nframe=  417 fps=1.2 q=51.0 size=     256KiB time=00:00:03.45 bitrate= 606.5kbits/s speed=0.01x elapsed=0:05:45.14    \nframe=  419 fps=1.2 q=50.8 size=     256KiB time=00:00:03.47 bitrate= 603.6kbits/s speed=0.0101x elapsed=0:05:45.66    \nframe=  421 fps=1.2 q=51.0 size=     256KiB time=00:00:03.49 bitrate= 600.7kbits/s speed=0.0101x elapsed=0:05:46.17    \nframe=  423 fps=1.2 q=50.8 size=     256KiB time=00:00:03.50 bitrate= 597.9kbits/s speed=0.0101x elapsed=0:05:46.69    \nframe=  426 fps=1.2 q=48.0 size=     256KiB time=00:00:03.53 bitrate= 593.6kbits/s speed=0.0102x elapsed=0:05:47.21    \nframe=  428 fps=1.2 q=51.0 size=     256KiB time=00:00:03.55 bitrate= 590.8kbits/s speed=0.0102x elapsed=0:05:47.73    \nframe=  430 fps=1.2 q=48.8 size=     256KiB time=00:00:03.56 bitrate= 588.1kbits/s speed=0.0102x elapsed=0:05:48.24    \nframe=  433 fps=1.2 q=51.0 size=     256KiB time=00:00:03.59 bitrate= 584.0kbits/s speed=0.0103x elapsed=0:05:48.76    \nframe=  435 fps=1.2 q=50.8 size=     256KiB time=00:00:03.60 bitrate= 581.3kbits/s speed=0.0103x elapsed=0:05:49.28    \nframe=  437 fps=1.2 q=51.0 size=     256KiB time=00:00:03.62 bitrate= 578.6kbits/s speed=0.0104x elapsed=0:05:49.78    \nframe=  439 fps=1.3 q=50.5 size=     256KiB time=00:00:03.64 bitrate= 576.0kbits/s speed=0.0104x elapsed=0:05:50.31    \nframe=  441 fps=1.3 q=51.0 size=     256KiB time=00:00:03.65 bitrate= 573.3kbits/s speed=0.0104x elapsed=0:05:50.81    \nframe=  443 fps=1.3 q=50.7 size=     256KiB time=00:00:03.67 bitrate= 570.7kbits/s speed=0.0105x elapsed=0:05:51.33    \nframe=  445 fps=1.3 q=51.0 size=     256KiB time=00:00:03.69 bitrate= 568.2kbits/s speed=0.0105x elapsed=0:05:51.85    \nframe=  447 fps=1.3 q=50.7 size=     256KiB time=00:00:03.70 bitrate= 565.6kbits/s speed=0.0105x elapsed=0:05:52.37    \nframe=  449 fps=1.3 q=51.0 size=     256KiB time=00:00:03.72 bitrate= 563.1kbits/s speed=0.0106x elapsed=0:05:52.88    \nframe=  451 fps=1.3 q=50.9 size=     256KiB time=00:00:03.74 bitrate= 560.6kbits/s speed=0.0106x elapsed=0:05:53.40    \nframe=  454 fps=1.3 q=48.3 size=     256KiB time=00:00:03.76 bitrate= 556.9kbits/s speed=0.0106x elapsed=0:05:53.91    \nframe=  456 fps=1.3 q=51.0 size=     256KiB time=00:00:03.78 bitrate= 554.4kbits/s speed=0.0107x elapsed=0:05:54.43    \nframe=  458 fps=1.3 q=47.3 size=     256KiB time=00:00:03.80 bitrate= 552.0kbits/s speed=0.0107x elapsed=0:05:54.95    \nframe=  460 fps=1.3 q=51.0 size=     256KiB time=00:00:03.81 bitrate= 549.6kbits/s speed=0.0107x elapsed=0:05:55.46    \nframe=  462 fps=1.3 q=47.9 size=     256KiB time=00:00:03.83 bitrate= 547.2kbits/s speed=0.0108x elapsed=0:05:55.97    \nframe=  464 fps=1.3 q=51.0 size=     256KiB time=00:00:03.85 bitrate= 544.8kbits/s speed=0.0108x elapsed=0:05:56.49    \nframe=  466 fps=1.3 q=47.7 size=     256KiB time=00:00:03.86 bitrate= 542.5kbits/s speed=0.0108x elapsed=0:05:57.00    \nframe=  468 fps=1.3 q=51.0 size=     256KiB time=00:00:03.88 bitrate= 540.1kbits/s speed=0.0109x elapsed=0:05:57.53    \nframe=  470 fps=1.3 q=48.2 size=     256KiB time=00:00:03.90 bitrate= 537.8kbits/s speed=0.0109x elapsed=0:05:58.04    \nframe=  472 fps=1.3 q=51.0 size=     256KiB time=00:00:03.91 bitrate= 535.5kbits/s speed=0.0109x elapsed=0:05:58.55    \nframe=  474 fps=1.3 q=47.7 size=     256KiB time=00:00:03.93 bitrate= 533.3kbits/s speed=0.011x elapsed=0:05:59.07    \nframe=  476 fps=1.3 q=51.0 size=     256KiB time=00:00:03.95 bitrate= 531.0kbits/s speed=0.011x elapsed=0:05:59.58    \nframe=  478 fps=1.3 q=48.9 size=     256KiB time=00:00:03.96 bitrate= 528.8kbits/s speed=0.011x elapsed=0:06:00.10    \nframe=  481 fps=1.3 q=51.0 size=     256KiB time=00:00:03.99 bitrate= 525.5kbits/s speed=0.0111x elapsed=0:06:00.61    \nframe=  483 fps=1.3 q=50.9 size=     256KiB time=00:00:04.00 bitrate= 523.3kbits/s speed=0.0111x elapsed=0:06:01.13    \nframe=  485 fps=1.3 q=51.0 size=     256KiB time=00:00:04.02 bitrate= 521.1kbits/s speed=0.0111x elapsed=0:06:01.64    \nframe=  487 fps=1.3 q=50.9 size=     256KiB time=00:00:04.04 bitrate= 519.0kbits/s speed=0.0112x elapsed=0:06:02.16    \nframe=  489 fps=1.3 q=51.0 size=     256KiB time=00:00:04.05 bitrate= 516.8kbits/s speed=0.0112x elapsed=0:06:02.68    \nframe=  490 fps=1.3 q=48.9 size=     256KiB time=00:00:04.06 bitrate= 515.8kbits/s speed=0.0112x elapsed=0:06:03.19    \nframe=  493 fps=1.4 q=51.0 size=     256KiB time=00:00:04.09 bitrate= 512.6kbits/s speed=0.0112x elapsed=0:06:03.71    \nframe=  495 fps=1.4 q=50.7 size=     256KiB time=00:00:04.10 bitrate= 510.5kbits/s speed=0.0113x elapsed=0:06:04.22    \nframe=  496 fps=1.4 q=51.0 size=     256KiB time=00:00:04.11 bitrate= 509.5kbits/s speed=0.0113x elapsed=0:06:04.74    \nframe=  498 fps=1.4 q=45.0 size=     256KiB time=00:00:04.13 bitrate= 507.5kbits/s speed=0.0113x elapsed=0:06:05.26    \nframe=  502 fps=1.4 q=49.5 size=     256KiB time=00:00:04.16 bitrate= 503.4kbits/s speed=0.0114x elapsed=0:06:05.77    \nframe=  504 fps=1.4 q=51.0 size=     256KiB time=00:00:04.18 bitrate= 501.4kbits/s speed=0.0114x elapsed=0:06:06.28    \nframe=  505 fps=1.4 q=51.0 size=     256KiB time=00:00:04.19 bitrate= 500.4kbits/s speed=0.0114x elapsed=0:06:06.80    \nframe=  508 fps=1.4 q=51.0 size=     256KiB time=00:00:04.21 bitrate= 497.4kbits/s speed=0.0115x elapsed=0:06:07.32    \nframe=  509 fps=1.4 q=51.0 size=     256KiB time=00:00:04.22 bitrate= 496.5kbits/s speed=0.0115x elapsed=0:06:07.83    \nframe=  511 fps=1.4 q=50.9 size=     256KiB time=00:00:04.24 bitrate= 494.5kbits/s speed=0.0115x elapsed=0:06:08.35    \nframe=  514 fps=1.4 q=48.2 size=     256KiB time=00:00:04.26 bitrate= 491.6kbits/s speed=0.0116x elapsed=0:06:08.86    \nframe=  517 fps=1.4 q=51.0 size=     512KiB time=00:00:04.29 bitrate= 977.4kbits/s speed=0.0116x elapsed=0:06:09.38    \nframe=  518 fps=1.4 q=48.8 size=     512KiB time=00:00:04.30 bitrate= 975.5kbits/s speed=0.0116x elapsed=0:06:09.90    \nframe=  521 fps=1.4 q=51.0 size=     512KiB time=00:00:04.32 bitrate= 969.9kbits/s speed=0.0117x elapsed=0:06:10.41    \nframe=  522 fps=1.4 q=47.8 size=     512KiB time=00:00:04.33 bitrate= 968.0kbits/s speed=0.0117x elapsed=0:06:10.93    \nframe=  525 fps=1.4 q=51.0 size=     512KiB time=00:00:04.35 bitrate= 962.4kbits/s speed=0.0117x elapsed=0:06:11.44    \nframe=  526 fps=1.4 q=48.7 size=     512KiB time=00:00:04.36 bitrate= 960.6kbits/s speed=0.0117x elapsed=0:06:11.96    \nframe=  528 fps=1.4 q=51.0 size=     512KiB time=00:00:04.38 bitrate= 957.0kbits/s speed=0.0118x elapsed=0:06:12.48    \nframe=  530 fps=1.4 q=48.4 size=     512KiB time=00:00:04.40 bitrate= 953.3kbits/s speed=0.0118x elapsed=0:06:12.99    \nframe=  533 fps=1.4 q=51.0 size=     512KiB time=00:00:04.42 bitrate= 947.9kbits/s speed=0.0118x elapsed=0:06:13.51    \nframe=  534 fps=1.4 q=49.1 size=     512KiB time=00:00:04.43 bitrate= 946.2kbits/s speed=0.0119x elapsed=0:06:14.02    \nframe=  536 fps=1.4 q=51.0 size=     512KiB time=00:00:04.45 bitrate= 942.6kbits/s speed=0.0119x elapsed=0:06:14.53    \nframe=  538 fps=1.4 q=48.0 size=     512KiB time=00:00:04.46 bitrate= 939.1kbits/s speed=0.0119x elapsed=0:06:15.06    \nframe=  540 fps=1.4 q=51.0 size=     512KiB time=00:00:04.48 bitrate= 935.6kbits/s speed=0.0119x elapsed=0:06:15.57    \nframe=  542 fps=1.4 q=48.3 size=     512KiB time=00:00:04.50 bitrate= 932.1kbits/s speed=0.012x elapsed=0:06:16.08    \nframe=  544 fps=1.4 q=51.0 size=     512KiB time=00:00:04.51 bitrate= 928.7kbits/s speed=0.012x elapsed=0:06:16.60    \nframe=  546 fps=1.4 q=48.3 size=     512KiB time=00:00:04.53 bitrate= 925.3kbits/s speed=0.012x elapsed=0:06:17.11    \nframe=  547 fps=1.4 q=50.9 size=     512KiB time=00:00:04.54 bitrate= 923.6kbits/s speed=0.012x elapsed=0:06:17.63    \nframe=  550 fps=1.5 q=48.5 size=     512KiB time=00:00:04.56 bitrate= 918.5kbits/s speed=0.0121x elapsed=0:06:18.15    \nframe=  552 fps=1.5 q=51.0 size=     512KiB time=00:00:04.58 bitrate= 915.2kbits/s speed=0.0121x elapsed=0:06:18.66    \nframe=  554 fps=1.5 q=48.0 size=     512KiB time=00:00:04.60 bitrate= 911.9kbits/s speed=0.0121x elapsed=0:06:19.17    \nframe=  556 fps=1.5 q=51.0 size=     512KiB time=00:00:04.61 bitrate= 908.6kbits/s speed=0.0122x elapsed=0:06:19.69    \nframe=  558 fps=1.5 q=51.0 size=     512KiB time=00:00:04.63 bitrate= 905.3kbits/s speed=0.0122x elapsed=0:06:20.21    \nframe=  560 fps=1.5 q=50.9 size=     512KiB time=00:00:04.65 bitrate= 902.1kbits/s speed=0.0122x elapsed=0:06:20.73    \nframe=  562 fps=1.5 q=51.0 size=     512KiB time=00:00:04.66 bitrate= 898.9kbits/s speed=0.0122x elapsed=0:06:21.24    \nframe=  564 fps=1.5 q=50.6 size=     512KiB time=00:00:04.68 bitrate= 895.7kbits/s speed=0.0123x elapsed=0:06:21.75    \nframe=  566 fps=1.5 q=51.0 size=     512KiB time=00:00:04.70 bitrate= 892.5kbits/s speed=0.0123x elapsed=0:06:22.27    \nframe=  568 fps=1.5 q=51.0 size=     512KiB time=00:00:04.71 bitrate= 889.3kbits/s speed=0.0123x elapsed=0:06:22.78    \nframe=  570 fps=1.5 q=51.0 size=     512KiB time=00:00:04.73 bitrate= 886.2kbits/s speed=0.0123x elapsed=0:06:23.30    \nframe=  571 fps=1.5 q=48.0 size=     512KiB time=00:00:04.74 bitrate= 884.6kbits/s speed=0.0124x elapsed=0:06:23.82    \nframe=  574 fps=1.5 q=51.0 size=     512KiB time=00:00:04.76 bitrate= 880.0kbits/s speed=0.0124x elapsed=0:06:24.33    \nframe=  575 fps=1.5 q=48.2 size=     512KiB time=00:00:04.77 bitrate= 878.5kbits/s speed=0.0124x elapsed=0:06:24.85    \nframe=  578 fps=1.5 q=51.0 size=     512KiB time=00:00:04.80 bitrate= 873.9kbits/s speed=0.0125x elapsed=0:06:25.37    \nframe=  579 fps=1.5 q=47.5 size=     512KiB time=00:00:04.80 bitrate= 872.4kbits/s speed=0.0125x elapsed=0:06:25.88    \nframe=  582 fps=1.5 q=51.0 size=     512KiB time=00:00:04.83 bitrate= 867.9kbits/s speed=0.0125x elapsed=0:06:26.40    \nframe=  584 fps=1.5 q=47.6 size=     512KiB time=00:00:04.85 bitrate= 864.9kbits/s speed=0.0125x elapsed=0:06:26.91    \nframe=  586 fps=1.5 q=51.0 size=     512KiB time=00:00:04.86 bitrate= 861.9kbits/s speed=0.0126x elapsed=0:06:27.42    \nframe=  589 fps=1.5 q=48.7 size=     512KiB time=00:00:04.89 bitrate= 857.5kbits/s speed=0.0126x elapsed=0:06:27.94    \nframe=  592 fps=1.5 q=51.0 size=     512KiB time=00:00:04.91 bitrate= 853.2kbits/s speed=0.0127x elapsed=0:06:28.46    \nframe=  596 fps=1.5 q=51.0 size=     512KiB time=00:00:04.95 bitrate= 847.4kbits/s speed=0.0127x elapsed=0:06:28.98    \nframe=  597 fps=1.5 q=48.7 size=     512KiB time=00:00:04.95 bitrate= 846.0kbits/s speed=0.0127x elapsed=0:06:29.51    \n[mp4 @ 00000245fcdeb780] Starting second pass: moving the moov atom to the beginning of the file\n[out#0/mp4 @ 00000245fcdeb640] video:599KiB audio:0KiB subtitle:0KiB other streams:0KiB global headers:2KiB muxing overhead: 1.814045%\nframe=  600 fps=1.5 q=50.0 Lsize=     610KiB time=00:00:04.98 bitrate=1002.9kbits/s speed=0.0128x elapsed=0:06:29.82    \nx265 [info]: frame I:      3, Avg QP:46.97  kb/s: 6212.16 \nx265 [info]: frame P:    147, Avg QP:48.49  kb/s: 2650.69 \nx265 [info]: frame B:    450, Avg QP:50.62  kb/s: 396.59  \nx265 [info]: Weighted P-Frames: Y:0.0% UV:0.0%\n\nencoded 600 frames in 389.69s (1.54 fps), 977.92 kb/s, Avg QP:50.08\n",
  "seconds": 390.00539112091064,
  "probe_out": {}
}